G04 #@! TF.GenerationSoftware,KiCad,Pcbnew,(6.0.8)*
G04 #@! TF.CreationDate,2022-10-08T19:14:22-07:00*
G04 #@! TF.ProjectId,opnsense-gps-pps,6f706e73-656e-4736-952d-6770732d7070,rev?*
G04 #@! TF.SameCoordinates,Original*
G04 #@! TF.FileFunction,Legend,Top*
G04 #@! TF.FilePolarity,Positive*
%FSLAX46Y46*%
G04 Gerber Fmt 4.6, Leading zero omitted, Abs format (unit mm)*
G04 Created by KiCad (PCBNEW (6.0.8)) date 2022-10-08 19:14:22*
%MOMM*%
%LPD*%
G01*
G04 APERTURE LIST*
G04 Aperture macros list*
%AMRoundRect*
0 Rectangle with rounded corners*
0 $1 Rounding radius*
0 $2 $3 $4 $5 $6 $7 $8 $9 X,Y pos of 4 corners*
0 Add a 4 corners polygon primitive as box body*
4,1,4,$2,$3,$4,$5,$6,$7,$8,$9,$2,$3,0*
0 Add four circle primitives for the rounded corners*
1,1,$1+$1,$2,$3*
1,1,$1+$1,$4,$5*
1,1,$1+$1,$6,$7*
1,1,$1+$1,$8,$9*
0 Add four rect primitives between the rounded corners*
20,1,$1+$1,$2,$3,$4,$5,0*
20,1,$1+$1,$4,$5,$6,$7,0*
20,1,$1+$1,$6,$7,$8,$9,0*
20,1,$1+$1,$8,$9,$2,$3,0*%
G04 Aperture macros list end*
%ADD10C,5.550000*%
%ADD11C,0.150000*%
%ADD12C,0.250000*%
%ADD13C,0.120000*%
%ADD14C,0.254001*%
%ADD15C,0.059995*%
%ADD16C,4.000000*%
%ADD17C,2.300000*%
%ADD18C,2.500000*%
%ADD19RoundRect,0.250000X0.350000X0.450000X-0.350000X0.450000X-0.350000X-0.450000X0.350000X-0.450000X0*%
%ADD20RoundRect,0.150000X-0.150000X0.825000X-0.150000X-0.825000X0.150000X-0.825000X0.150000X0.825000X0*%
%ADD21RoundRect,0.250000X0.337500X0.475000X-0.337500X0.475000X-0.337500X-0.475000X0.337500X-0.475000X0*%
%ADD22R,1.700000X1.700000*%
%ADD23O,1.700000X1.700000*%
%ADD24RoundRect,0.250000X-0.325000X-0.450000X0.325000X-0.450000X0.325000X0.450000X-0.325000X0.450000X0*%
%ADD25R,1.524003X1.524003*%
%ADD26C,1.524003*%
%ADD27RoundRect,0.250000X-0.337500X-0.475000X0.337500X-0.475000X0.337500X0.475000X-0.337500X0.475000X0*%
%ADD28RoundRect,0.250000X-0.475000X0.337500X-0.475000X-0.337500X0.475000X-0.337500X0.475000X0.337500X0*%
G04 APERTURE END LIST*
D10*
X72775000Y-50000000D02*
G75*
G03*
X72775000Y-50000000I-2775000J0D01*
G01*
X72775000Y-97000000D02*
G75*
G03*
X72775000Y-97000000I-2775000J0D01*
G01*
X127775000Y-97000000D02*
G75*
G03*
X127775000Y-97000000I-2775000J0D01*
G01*
D11*
X76380952Y-45452380D02*
X76380952Y-46166666D01*
X76333333Y-46309523D01*
X76238095Y-46404761D01*
X76095238Y-46452380D01*
X76000000Y-46452380D01*
X77333333Y-46452380D02*
X76857142Y-46452380D01*
X76857142Y-45452380D01*
X78238095Y-46357142D02*
X78190476Y-46404761D01*
X78047619Y-46452380D01*
X77952380Y-46452380D01*
X77809523Y-46404761D01*
X77714285Y-46309523D01*
X77666666Y-46214285D01*
X77619047Y-46023809D01*
X77619047Y-45880952D01*
X77666666Y-45690476D01*
X77714285Y-45595238D01*
X77809523Y-45500000D01*
X77952380Y-45452380D01*
X78047619Y-45452380D01*
X78190476Y-45500000D01*
X78238095Y-45547619D01*
X78952380Y-45452380D02*
X78952380Y-46166666D01*
X78904761Y-46309523D01*
X78809523Y-46404761D01*
X78666666Y-46452380D01*
X78571428Y-46452380D01*
X79904761Y-46452380D02*
X79428571Y-46452380D01*
X79428571Y-45452380D01*
X80809523Y-46357142D02*
X80761904Y-46404761D01*
X80619047Y-46452380D01*
X80523809Y-46452380D01*
X80380952Y-46404761D01*
X80285714Y-46309523D01*
X80238095Y-46214285D01*
X80190476Y-46023809D01*
X80190476Y-45880952D01*
X80238095Y-45690476D01*
X80285714Y-45595238D01*
X80380952Y-45500000D01*
X80523809Y-45452380D01*
X80619047Y-45452380D01*
X80761904Y-45500000D01*
X80809523Y-45547619D01*
X81523809Y-45452380D02*
X81523809Y-46166666D01*
X81476190Y-46309523D01*
X81380952Y-46404761D01*
X81238095Y-46452380D01*
X81142857Y-46452380D01*
X82476190Y-46452380D02*
X82000000Y-46452380D01*
X82000000Y-45452380D01*
X83380952Y-46357142D02*
X83333333Y-46404761D01*
X83190476Y-46452380D01*
X83095238Y-46452380D01*
X82952380Y-46404761D01*
X82857142Y-46309523D01*
X82809523Y-46214285D01*
X82761904Y-46023809D01*
X82761904Y-45880952D01*
X82809523Y-45690476D01*
X82857142Y-45595238D01*
X82952380Y-45500000D01*
X83095238Y-45452380D01*
X83190476Y-45452380D01*
X83333333Y-45500000D01*
X83380952Y-45547619D01*
X84095238Y-45452380D02*
X84095238Y-46166666D01*
X84047619Y-46309523D01*
X83952380Y-46404761D01*
X83809523Y-46452380D01*
X83714285Y-46452380D01*
X85047619Y-46452380D02*
X84571428Y-46452380D01*
X84571428Y-45452380D01*
X85952380Y-46357142D02*
X85904761Y-46404761D01*
X85761904Y-46452380D01*
X85666666Y-46452380D01*
X85523809Y-46404761D01*
X85428571Y-46309523D01*
X85380952Y-46214285D01*
X85333333Y-46023809D01*
X85333333Y-45880952D01*
X85380952Y-45690476D01*
X85428571Y-45595238D01*
X85523809Y-45500000D01*
X85666666Y-45452380D01*
X85761904Y-45452380D01*
X85904761Y-45500000D01*
X85952380Y-45547619D01*
X64000000Y-71000000D02*
X87000000Y-71000000D01*
X87000000Y-71000000D02*
X87000000Y-89000000D01*
X87000000Y-89000000D02*
X64000000Y-89000000D01*
X64000000Y-89000000D02*
X64000000Y-71000000D01*
D10*
X127775000Y-50000000D02*
G75*
G03*
X127775000Y-50000000I-2775000J0D01*
G01*
D11*
X93904761Y-49607142D02*
X93952380Y-49511904D01*
X93952380Y-49321428D01*
X93904761Y-49226190D01*
X93809523Y-49178571D01*
X93761904Y-49178571D01*
X93666666Y-49226190D01*
X93619047Y-49321428D01*
X93619047Y-49464285D01*
X93571428Y-49559523D01*
X93476190Y-49607142D01*
X93428571Y-49607142D01*
X93333333Y-49559523D01*
X93285714Y-49464285D01*
X93285714Y-49321428D01*
X93333333Y-49226190D01*
X93285714Y-48750000D02*
X94285714Y-48750000D01*
X93333333Y-48750000D02*
X93285714Y-48654761D01*
X93285714Y-48464285D01*
X93333333Y-48369047D01*
X93380952Y-48321428D01*
X93476190Y-48273809D01*
X93761904Y-48273809D01*
X93857142Y-48321428D01*
X93904761Y-48369047D01*
X93952380Y-48464285D01*
X93952380Y-48654761D01*
X93904761Y-48750000D01*
X93952380Y-47416666D02*
X93428571Y-47416666D01*
X93333333Y-47464285D01*
X93285714Y-47559523D01*
X93285714Y-47750000D01*
X93333333Y-47845238D01*
X93904761Y-47416666D02*
X93952380Y-47511904D01*
X93952380Y-47750000D01*
X93904761Y-47845238D01*
X93809523Y-47892857D01*
X93714285Y-47892857D01*
X93619047Y-47845238D01*
X93571428Y-47750000D01*
X93571428Y-47511904D01*
X93523809Y-47416666D01*
X93952380Y-46940476D02*
X93285714Y-46940476D01*
X93476190Y-46940476D02*
X93380952Y-46892857D01*
X93333333Y-46845238D01*
X93285714Y-46750000D01*
X93285714Y-46654761D01*
X93904761Y-45940476D02*
X93952380Y-46035714D01*
X93952380Y-46226190D01*
X93904761Y-46321428D01*
X93809523Y-46369047D01*
X93428571Y-46369047D01*
X93333333Y-46321428D01*
X93285714Y-46226190D01*
X93285714Y-46035714D01*
X93333333Y-45940476D01*
X93428571Y-45892857D01*
X93523809Y-45892857D01*
X93619047Y-46369047D01*
X109452380Y-53916666D02*
X108976190Y-54250000D01*
X109452380Y-54488095D02*
X108452380Y-54488095D01*
X108452380Y-54107142D01*
X108500000Y-54011904D01*
X108547619Y-53964285D01*
X108642857Y-53916666D01*
X108785714Y-53916666D01*
X108880952Y-53964285D01*
X108928571Y-54011904D01*
X108976190Y-54107142D01*
X108976190Y-54488095D01*
X108452380Y-53583333D02*
X109452380Y-52916666D01*
X108452380Y-52916666D02*
X109452380Y-53583333D01*
X109452380Y-52535714D02*
X108452380Y-52535714D01*
X108452380Y-52297619D01*
X108500000Y-52154761D01*
X108595238Y-52059523D01*
X108690476Y-52011904D01*
X108880952Y-51964285D01*
X109023809Y-51964285D01*
X109214285Y-52011904D01*
X109309523Y-52059523D01*
X109404761Y-52154761D01*
X109452380Y-52297619D01*
X109452380Y-52535714D01*
X92238095Y-82044975D02*
X92142857Y-81997355D01*
X92000000Y-81997355D01*
X91857142Y-82044975D01*
X91761904Y-82140213D01*
X91714285Y-82235451D01*
X91666666Y-82425927D01*
X91666666Y-82568784D01*
X91714285Y-82759260D01*
X91761904Y-82854498D01*
X91857142Y-82949736D01*
X92000000Y-82997355D01*
X92095238Y-82997355D01*
X92238095Y-82949736D01*
X92285714Y-82902117D01*
X92285714Y-82568784D01*
X92095238Y-82568784D01*
X92714285Y-82997355D02*
X92714285Y-81997355D01*
X93285714Y-82997355D01*
X93285714Y-81997355D01*
X93761904Y-82997355D02*
X93761904Y-81997355D01*
X94000000Y-81997355D01*
X94142857Y-82044975D01*
X94238095Y-82140213D01*
X94285714Y-82235451D01*
X94333333Y-82425927D01*
X94333333Y-82568784D01*
X94285714Y-82759260D01*
X94238095Y-82854498D01*
X94142857Y-82949736D01*
X94000000Y-82997355D01*
X93761904Y-82997355D01*
X107619047Y-81904761D02*
X106666666Y-81904761D01*
X106571428Y-82857142D01*
X106666666Y-82761904D01*
X106857142Y-82666666D01*
X107333333Y-82666666D01*
X107523809Y-82761904D01*
X107619047Y-82857142D01*
X107714285Y-83047619D01*
X107714285Y-83523809D01*
X107619047Y-83714285D01*
X107523809Y-83809523D01*
X107333333Y-83904761D01*
X106857142Y-83904761D01*
X106666666Y-83809523D01*
X106571428Y-83714285D01*
X108285714Y-81904761D02*
X108952380Y-83904761D01*
X109619047Y-81904761D01*
X92333333Y-77917355D02*
X92000000Y-77441165D01*
X91761904Y-77917355D02*
X91761904Y-76917355D01*
X92142857Y-76917355D01*
X92238095Y-76964975D01*
X92285714Y-77012594D01*
X92333333Y-77107832D01*
X92333333Y-77250689D01*
X92285714Y-77345927D01*
X92238095Y-77393546D01*
X92142857Y-77441165D01*
X91761904Y-77441165D01*
X92666666Y-76917355D02*
X93333333Y-77917355D01*
X93333333Y-76917355D02*
X92666666Y-77917355D01*
X93714285Y-77917355D02*
X93714285Y-76917355D01*
X93952380Y-76917355D01*
X94095238Y-76964975D01*
X94190476Y-77060213D01*
X94238095Y-77155451D01*
X94285714Y-77345927D01*
X94285714Y-77488784D01*
X94238095Y-77679260D01*
X94190476Y-77774498D01*
X94095238Y-77869736D01*
X93952380Y-77917355D01*
X93714285Y-77917355D01*
X106428571Y-68904761D02*
X106428571Y-66904761D01*
X107571428Y-68904761D01*
X107571428Y-66904761D01*
X109666666Y-68714285D02*
X109571428Y-68809523D01*
X109285714Y-68904761D01*
X109095238Y-68904761D01*
X108809523Y-68809523D01*
X108619047Y-68619047D01*
X108523809Y-68428571D01*
X108428571Y-68047619D01*
X108428571Y-67761904D01*
X108523809Y-67380952D01*
X108619047Y-67190476D01*
X108809523Y-67000000D01*
X109095238Y-66904761D01*
X109285714Y-66904761D01*
X109571428Y-67000000D01*
X109666666Y-67095238D01*
X107476190Y-72000000D02*
X107285714Y-71904761D01*
X107000000Y-71904761D01*
X106714285Y-72000000D01*
X106523809Y-72190476D01*
X106428571Y-72380952D01*
X106333333Y-72761904D01*
X106333333Y-73047619D01*
X106428571Y-73428571D01*
X106523809Y-73619047D01*
X106714285Y-73809523D01*
X107000000Y-73904761D01*
X107190476Y-73904761D01*
X107476190Y-73809523D01*
X107571428Y-73714285D01*
X107571428Y-73047619D01*
X107190476Y-73047619D01*
X108428571Y-73904761D02*
X108428571Y-71904761D01*
X109571428Y-73904761D01*
X109571428Y-71904761D01*
X110523809Y-73904761D02*
X110523809Y-71904761D01*
X111000000Y-71904761D01*
X111285714Y-72000000D01*
X111476190Y-72190476D01*
X111571428Y-72380952D01*
X111666666Y-72761904D01*
X111666666Y-73047619D01*
X111571428Y-73428571D01*
X111476190Y-73619047D01*
X111285714Y-73809523D01*
X111000000Y-73904761D01*
X110523809Y-73904761D01*
D12*
X77654761Y-91750000D02*
X77416666Y-91630952D01*
X77059523Y-91630952D01*
X76702380Y-91750000D01*
X76464285Y-91988095D01*
X76345238Y-92226190D01*
X76226190Y-92702380D01*
X76226190Y-93059523D01*
X76345238Y-93535714D01*
X76464285Y-93773809D01*
X76702380Y-94011904D01*
X77059523Y-94130952D01*
X77297619Y-94130952D01*
X77654761Y-94011904D01*
X77773809Y-93892857D01*
X77773809Y-93059523D01*
X77297619Y-93059523D01*
X78845238Y-94130952D02*
X78845238Y-91630952D01*
X79797619Y-91630952D01*
X80035714Y-91750000D01*
X80154761Y-91869047D01*
X80273809Y-92107142D01*
X80273809Y-92464285D01*
X80154761Y-92702380D01*
X80035714Y-92821428D01*
X79797619Y-92940476D01*
X78845238Y-92940476D01*
X81226190Y-94011904D02*
X81583333Y-94130952D01*
X82178571Y-94130952D01*
X82416666Y-94011904D01*
X82535714Y-93892857D01*
X82654761Y-93654761D01*
X82654761Y-93416666D01*
X82535714Y-93178571D01*
X82416666Y-93059523D01*
X82178571Y-92940476D01*
X81702380Y-92821428D01*
X81464285Y-92702380D01*
X81345238Y-92583333D01*
X81226190Y-92345238D01*
X81226190Y-92107142D01*
X81345238Y-91869047D01*
X81464285Y-91750000D01*
X81702380Y-91630952D01*
X82297619Y-91630952D01*
X82654761Y-91750000D01*
X85511904Y-91511904D02*
X83369047Y-94726190D01*
X86345238Y-94130952D02*
X86345238Y-91630952D01*
X87297619Y-91630952D01*
X87535714Y-91750000D01*
X87654761Y-91869047D01*
X87773809Y-92107142D01*
X87773809Y-92464285D01*
X87654761Y-92702380D01*
X87535714Y-92821428D01*
X87297619Y-92940476D01*
X86345238Y-92940476D01*
X88845238Y-94130952D02*
X88845238Y-91630952D01*
X89797619Y-91630952D01*
X90035714Y-91750000D01*
X90154761Y-91869047D01*
X90273809Y-92107142D01*
X90273809Y-92464285D01*
X90154761Y-92702380D01*
X90035714Y-92821428D01*
X89797619Y-92940476D01*
X88845238Y-92940476D01*
X91226190Y-94011904D02*
X91583333Y-94130952D01*
X92178571Y-94130952D01*
X92416666Y-94011904D01*
X92535714Y-93892857D01*
X92654761Y-93654761D01*
X92654761Y-93416666D01*
X92535714Y-93178571D01*
X92416666Y-93059523D01*
X92178571Y-92940476D01*
X91702380Y-92821428D01*
X91464285Y-92702380D01*
X91345238Y-92583333D01*
X91226190Y-92345238D01*
X91226190Y-92107142D01*
X91345238Y-91869047D01*
X91464285Y-91750000D01*
X91702380Y-91630952D01*
X92297619Y-91630952D01*
X92654761Y-91750000D01*
X97535714Y-92464285D02*
X95630952Y-93178571D01*
X97535714Y-93892857D01*
X98726190Y-93178571D02*
X100630952Y-93178571D01*
X101821428Y-92464285D02*
X103726190Y-93178571D01*
X101821428Y-93892857D01*
X108250000Y-94130952D02*
X107416666Y-92940476D01*
X106821428Y-94130952D02*
X106821428Y-91630952D01*
X107773809Y-91630952D01*
X108011904Y-91750000D01*
X108130952Y-91869047D01*
X108250000Y-92107142D01*
X108250000Y-92464285D01*
X108130952Y-92702380D01*
X108011904Y-92821428D01*
X107773809Y-92940476D01*
X106821428Y-92940476D01*
X109202380Y-94011904D02*
X109559523Y-94130952D01*
X110154761Y-94130952D01*
X110392857Y-94011904D01*
X110511904Y-93892857D01*
X110630952Y-93654761D01*
X110630952Y-93416666D01*
X110511904Y-93178571D01*
X110392857Y-93059523D01*
X110154761Y-92940476D01*
X109678571Y-92821428D01*
X109440476Y-92702380D01*
X109321428Y-92583333D01*
X109202380Y-92345238D01*
X109202380Y-92107142D01*
X109321428Y-91869047D01*
X109440476Y-91750000D01*
X109678571Y-91630952D01*
X110273809Y-91630952D01*
X110630952Y-91750000D01*
X111583333Y-91869047D02*
X111702380Y-91750000D01*
X111940476Y-91630952D01*
X112535714Y-91630952D01*
X112773809Y-91750000D01*
X112892857Y-91869047D01*
X113011904Y-92107142D01*
X113011904Y-92345238D01*
X112892857Y-92702380D01*
X111464285Y-94130952D01*
X113011904Y-94130952D01*
X113845238Y-91630952D02*
X115392857Y-91630952D01*
X114559523Y-92583333D01*
X114916666Y-92583333D01*
X115154761Y-92702380D01*
X115273809Y-92821428D01*
X115392857Y-93059523D01*
X115392857Y-93654761D01*
X115273809Y-93892857D01*
X115154761Y-94011904D01*
X114916666Y-94130952D01*
X114202380Y-94130952D01*
X113964285Y-94011904D01*
X113845238Y-93892857D01*
X116345238Y-91869047D02*
X116464285Y-91750000D01*
X116702380Y-91630952D01*
X117297619Y-91630952D01*
X117535714Y-91750000D01*
X117654761Y-91869047D01*
X117773809Y-92107142D01*
X117773809Y-92345238D01*
X117654761Y-92702380D01*
X116226190Y-94130952D01*
X117773809Y-94130952D01*
D11*
X91761904Y-75377355D02*
X91761904Y-74377355D01*
X92142857Y-74377355D01*
X92238095Y-74424975D01*
X92285714Y-74472594D01*
X92333333Y-74567832D01*
X92333333Y-74710689D01*
X92285714Y-74805927D01*
X92238095Y-74853546D01*
X92142857Y-74901165D01*
X91761904Y-74901165D01*
X92761904Y-75377355D02*
X92761904Y-74377355D01*
X93142857Y-74377355D01*
X93238095Y-74424975D01*
X93285714Y-74472594D01*
X93333333Y-74567832D01*
X93333333Y-74710689D01*
X93285714Y-74805927D01*
X93238095Y-74853546D01*
X93142857Y-74901165D01*
X92761904Y-74901165D01*
X93714285Y-75329736D02*
X93857142Y-75377355D01*
X94095238Y-75377355D01*
X94190476Y-75329736D01*
X94238095Y-75282117D01*
X94285714Y-75186879D01*
X94285714Y-75091641D01*
X94238095Y-74996403D01*
X94190476Y-74948784D01*
X94095238Y-74901165D01*
X93904761Y-74853546D01*
X93809523Y-74805927D01*
X93761904Y-74758308D01*
X93714285Y-74663070D01*
X93714285Y-74567832D01*
X93761904Y-74472594D01*
X93809523Y-74424975D01*
X93904761Y-74377355D01*
X94142857Y-74377355D01*
X94285714Y-74424975D01*
X110952380Y-54261904D02*
X110952380Y-53690476D01*
X111952380Y-53976190D02*
X110952380Y-53976190D01*
X110952380Y-53452380D02*
X111952380Y-52785714D01*
X110952380Y-52785714D02*
X111952380Y-53452380D01*
X111952380Y-52404761D02*
X110952380Y-52404761D01*
X110952380Y-52166666D01*
X111000000Y-52023809D01*
X111095238Y-51928571D01*
X111190476Y-51880952D01*
X111380952Y-51833333D01*
X111523809Y-51833333D01*
X111714285Y-51880952D01*
X111809523Y-51928571D01*
X111904761Y-52023809D01*
X111952380Y-52166666D01*
X111952380Y-52404761D01*
X106952380Y-54488095D02*
X105952380Y-54488095D01*
X105952380Y-54107142D01*
X106000000Y-54011904D01*
X106047619Y-53964285D01*
X106142857Y-53916666D01*
X106285714Y-53916666D01*
X106380952Y-53964285D01*
X106428571Y-54011904D01*
X106476190Y-54107142D01*
X106476190Y-54488095D01*
X106952380Y-53488095D02*
X105952380Y-53488095D01*
X105952380Y-53107142D01*
X106000000Y-53011904D01*
X106047619Y-52964285D01*
X106142857Y-52916666D01*
X106285714Y-52916666D01*
X106380952Y-52964285D01*
X106428571Y-53011904D01*
X106476190Y-53107142D01*
X106476190Y-53488095D01*
X106904761Y-52535714D02*
X106952380Y-52392857D01*
X106952380Y-52154761D01*
X106904761Y-52059523D01*
X106857142Y-52011904D01*
X106761904Y-51964285D01*
X106666666Y-51964285D01*
X106571428Y-52011904D01*
X106523809Y-52059523D01*
X106476190Y-52154761D01*
X106428571Y-52345238D01*
X106380952Y-52440476D01*
X106333333Y-52488095D01*
X106238095Y-52535714D01*
X106142857Y-52535714D01*
X106047619Y-52488095D01*
X106000000Y-52440476D01*
X105952380Y-52345238D01*
X105952380Y-52107142D01*
X106000000Y-51964285D01*
X91738095Y-79452355D02*
X92309523Y-79452355D01*
X92023809Y-80452355D02*
X92023809Y-79452355D01*
X92547619Y-79452355D02*
X93214285Y-80452355D01*
X93214285Y-79452355D02*
X92547619Y-80452355D01*
X93595238Y-80452355D02*
X93595238Y-79452355D01*
X93833333Y-79452355D01*
X93976190Y-79499975D01*
X94071428Y-79595213D01*
X94119047Y-79690451D01*
X94166666Y-79880927D01*
X94166666Y-80023784D01*
X94119047Y-80214260D01*
X94071428Y-80309498D01*
X93976190Y-80404736D01*
X93833333Y-80452355D01*
X93595238Y-80452355D01*
X98511904Y-46047619D02*
X98559523Y-46000000D01*
X98654761Y-45952380D01*
X98892857Y-45952380D01*
X98988095Y-46000000D01*
X99035714Y-46047619D01*
X99083333Y-46142857D01*
X99083333Y-46238095D01*
X99035714Y-46380952D01*
X98464285Y-46952380D01*
X99083333Y-46952380D01*
X99416666Y-45952380D02*
X100035714Y-45952380D01*
X99702380Y-46333333D01*
X99845238Y-46333333D01*
X99940476Y-46380952D01*
X99988095Y-46428571D01*
X100035714Y-46523809D01*
X100035714Y-46761904D01*
X99988095Y-46857142D01*
X99940476Y-46904761D01*
X99845238Y-46952380D01*
X99559523Y-46952380D01*
X99464285Y-46904761D01*
X99416666Y-46857142D01*
X100416666Y-46047619D02*
X100464285Y-46000000D01*
X100559523Y-45952380D01*
X100797619Y-45952380D01*
X100892857Y-46000000D01*
X100940476Y-46047619D01*
X100988095Y-46142857D01*
X100988095Y-46238095D01*
X100940476Y-46380952D01*
X100369047Y-46952380D01*
X100988095Y-46952380D01*
X103821428Y-54535714D02*
X103821428Y-53773809D01*
X104202380Y-54154761D02*
X103440476Y-54154761D01*
X103202380Y-52821428D02*
X103202380Y-53297619D01*
X103678571Y-53345238D01*
X103630952Y-53297619D01*
X103583333Y-53202380D01*
X103583333Y-52964285D01*
X103630952Y-52869047D01*
X103678571Y-52821428D01*
X103773809Y-52773809D01*
X104011904Y-52773809D01*
X104107142Y-52821428D01*
X104154761Y-52869047D01*
X104202380Y-52964285D01*
X104202380Y-53202380D01*
X104154761Y-53297619D01*
X104107142Y-53345238D01*
X103202380Y-52488095D02*
X104202380Y-52154761D01*
X103202380Y-51821428D01*
X113500000Y-54011904D02*
X113452380Y-54107142D01*
X113452380Y-54250000D01*
X113500000Y-54392857D01*
X113595238Y-54488095D01*
X113690476Y-54535714D01*
X113880952Y-54583333D01*
X114023809Y-54583333D01*
X114214285Y-54535714D01*
X114309523Y-54488095D01*
X114404761Y-54392857D01*
X114452380Y-54250000D01*
X114452380Y-54154761D01*
X114404761Y-54011904D01*
X114357142Y-53964285D01*
X114023809Y-53964285D01*
X114023809Y-54154761D01*
X114452380Y-53535714D02*
X113452380Y-53535714D01*
X114452380Y-52964285D01*
X113452380Y-52964285D01*
X114452380Y-52488095D02*
X113452380Y-52488095D01*
X113452380Y-52250000D01*
X113500000Y-52107142D01*
X113595238Y-52011904D01*
X113690476Y-51964285D01*
X113880952Y-51916666D01*
X114023809Y-51916666D01*
X114214285Y-51964285D01*
X114309523Y-52011904D01*
X114404761Y-52107142D01*
X114452380Y-52250000D01*
X114452380Y-52488095D01*
D12*
X76666666Y-98130952D02*
X76666666Y-96464285D01*
X76666666Y-96702380D02*
X76785714Y-96583333D01*
X77023809Y-96464285D01*
X77380952Y-96464285D01*
X77619047Y-96583333D01*
X77738095Y-96821428D01*
X77738095Y-98130952D01*
X77738095Y-96821428D02*
X77857142Y-96583333D01*
X78095238Y-96464285D01*
X78452380Y-96464285D01*
X78690476Y-96583333D01*
X78809523Y-96821428D01*
X78809523Y-98130952D01*
X81309523Y-98130952D02*
X79880952Y-98130952D01*
X80595238Y-98130952D02*
X80595238Y-95630952D01*
X80357142Y-95988095D01*
X80119047Y-96226190D01*
X79880952Y-96345238D01*
X82142857Y-96464285D02*
X82738095Y-98130952D01*
X83333333Y-96464285D01*
X85595238Y-98130952D02*
X84166666Y-98130952D01*
X84880952Y-98130952D02*
X84880952Y-95630952D01*
X84642857Y-95988095D01*
X84404761Y-96226190D01*
X84166666Y-96345238D01*
X86666666Y-97892857D02*
X86785714Y-98011904D01*
X86666666Y-98130952D01*
X86547619Y-98011904D01*
X86666666Y-97892857D01*
X86666666Y-98130952D01*
X87738095Y-95869047D02*
X87857142Y-95750000D01*
X88095238Y-95630952D01*
X88690476Y-95630952D01*
X88928571Y-95750000D01*
X89047619Y-95869047D01*
X89166666Y-96107142D01*
X89166666Y-96345238D01*
X89047619Y-96702380D01*
X87619047Y-98130952D01*
X89166666Y-98130952D01*
X90119047Y-95869047D02*
X90238095Y-95750000D01*
X90476190Y-95630952D01*
X91071428Y-95630952D01*
X91309523Y-95750000D01*
X91428571Y-95869047D01*
X91547619Y-96107142D01*
X91547619Y-96345238D01*
X91428571Y-96702380D01*
X90000000Y-98130952D01*
X91547619Y-98130952D01*
X92619047Y-97892857D02*
X92738095Y-98011904D01*
X92619047Y-98130952D01*
X92500000Y-98011904D01*
X92619047Y-97892857D01*
X92619047Y-98130952D01*
X95119047Y-98130952D02*
X93690476Y-98130952D01*
X94404761Y-98130952D02*
X94404761Y-95630952D01*
X94166666Y-95988095D01*
X93928571Y-96226190D01*
X93690476Y-96345238D01*
X96666666Y-95630952D02*
X96904761Y-95630952D01*
X97142857Y-95750000D01*
X97261904Y-95869047D01*
X97380952Y-96107142D01*
X97500000Y-96583333D01*
X97500000Y-97178571D01*
X97380952Y-97654761D01*
X97261904Y-97892857D01*
X97142857Y-98011904D01*
X96904761Y-98130952D01*
X96666666Y-98130952D01*
X96428571Y-98011904D01*
X96309523Y-97892857D01*
X96190476Y-97654761D01*
X96071428Y-97178571D01*
X96071428Y-96583333D01*
X96190476Y-96107142D01*
X96309523Y-95869047D01*
X96428571Y-95750000D01*
X96666666Y-95630952D01*
X98571428Y-97892857D02*
X98690476Y-98011904D01*
X98571428Y-98130952D01*
X98452380Y-98011904D01*
X98571428Y-97892857D01*
X98571428Y-98130952D01*
X100238095Y-95630952D02*
X100476190Y-95630952D01*
X100714285Y-95750000D01*
X100833333Y-95869047D01*
X100952380Y-96107142D01*
X101071428Y-96583333D01*
X101071428Y-97178571D01*
X100952380Y-97654761D01*
X100833333Y-97892857D01*
X100714285Y-98011904D01*
X100476190Y-98130952D01*
X100238095Y-98130952D01*
X100000000Y-98011904D01*
X99880952Y-97892857D01*
X99761904Y-97654761D01*
X99642857Y-97178571D01*
X99642857Y-96583333D01*
X99761904Y-96107142D01*
X99880952Y-95869047D01*
X100000000Y-95750000D01*
X100238095Y-95630952D01*
X102500000Y-96702380D02*
X102261904Y-96583333D01*
X102142857Y-96464285D01*
X102023809Y-96226190D01*
X102023809Y-96107142D01*
X102142857Y-95869047D01*
X102261904Y-95750000D01*
X102500000Y-95630952D01*
X102976190Y-95630952D01*
X103214285Y-95750000D01*
X103333333Y-95869047D01*
X103452380Y-96107142D01*
X103452380Y-96226190D01*
X103333333Y-96464285D01*
X103214285Y-96583333D01*
X102976190Y-96702380D01*
X102500000Y-96702380D01*
X102261904Y-96821428D01*
X102142857Y-96940476D01*
X102023809Y-97178571D01*
X102023809Y-97654761D01*
X102142857Y-97892857D01*
X102261904Y-98011904D01*
X102500000Y-98130952D01*
X102976190Y-98130952D01*
X103214285Y-98011904D01*
X103333333Y-97892857D01*
X103452380Y-97654761D01*
X103452380Y-97178571D01*
X103333333Y-96940476D01*
X103214285Y-96821428D01*
X102976190Y-96702380D01*
D11*
X107476190Y-77000000D02*
X107285714Y-76904761D01*
X107000000Y-76904761D01*
X106714285Y-77000000D01*
X106523809Y-77190476D01*
X106428571Y-77380952D01*
X106333333Y-77761904D01*
X106333333Y-78047619D01*
X106428571Y-78428571D01*
X106523809Y-78619047D01*
X106714285Y-78809523D01*
X107000000Y-78904761D01*
X107190476Y-78904761D01*
X107476190Y-78809523D01*
X107571428Y-78714285D01*
X107571428Y-78047619D01*
X107190476Y-78047619D01*
X108428571Y-78904761D02*
X108428571Y-76904761D01*
X109571428Y-78904761D01*
X109571428Y-76904761D01*
X110523809Y-78904761D02*
X110523809Y-76904761D01*
X111000000Y-76904761D01*
X111285714Y-77000000D01*
X111476190Y-77190476D01*
X111571428Y-77380952D01*
X111666666Y-77761904D01*
X111666666Y-78047619D01*
X111571428Y-78428571D01*
X111476190Y-78619047D01*
X111285714Y-78809523D01*
X111000000Y-78904761D01*
X110523809Y-78904761D01*
X92809523Y-84452380D02*
X92333333Y-84452380D01*
X92285714Y-84928571D01*
X92333333Y-84880952D01*
X92428571Y-84833333D01*
X92666666Y-84833333D01*
X92761904Y-84880952D01*
X92809523Y-84928571D01*
X92857142Y-85023809D01*
X92857142Y-85261904D01*
X92809523Y-85357142D01*
X92761904Y-85404761D01*
X92666666Y-85452380D01*
X92428571Y-85452380D01*
X92333333Y-85404761D01*
X92285714Y-85357142D01*
X93142857Y-84452380D02*
X93476190Y-85452380D01*
X93809523Y-84452380D01*
X98511904Y-49035714D02*
X98892857Y-49035714D01*
X98654761Y-48702380D02*
X98654761Y-49559523D01*
X98702380Y-49654761D01*
X98797619Y-49702380D01*
X98892857Y-49702380D01*
X99083333Y-49035714D02*
X99464285Y-49035714D01*
X99226190Y-48702380D02*
X99226190Y-49559523D01*
X99273809Y-49654761D01*
X99369047Y-49702380D01*
X99464285Y-49702380D01*
X99940476Y-49702380D02*
X99845238Y-49654761D01*
X99797619Y-49559523D01*
X99797619Y-48702380D01*
D12*
X76773809Y-101130952D02*
X76773809Y-98630952D01*
X77011904Y-100178571D02*
X77726190Y-101130952D01*
X77726190Y-99464285D02*
X76773809Y-100416666D01*
X79869047Y-101130952D02*
X79869047Y-99821428D01*
X79750000Y-99583333D01*
X79511904Y-99464285D01*
X79035714Y-99464285D01*
X78797619Y-99583333D01*
X79869047Y-101011904D02*
X79630952Y-101130952D01*
X79035714Y-101130952D01*
X78797619Y-101011904D01*
X78678571Y-100773809D01*
X78678571Y-100535714D01*
X78797619Y-100297619D01*
X79035714Y-100178571D01*
X79630952Y-100178571D01*
X79869047Y-100059523D01*
X81059523Y-101130952D02*
X81059523Y-99464285D01*
X81059523Y-99940476D02*
X81178571Y-99702380D01*
X81297619Y-99583333D01*
X81535714Y-99464285D01*
X81773809Y-99464285D01*
X82964285Y-101130952D02*
X82726190Y-101011904D01*
X82607142Y-100773809D01*
X82607142Y-98630952D01*
X86892857Y-99464285D02*
X86892857Y-101964285D01*
X86892857Y-101011904D02*
X86654761Y-101130952D01*
X86178571Y-101130952D01*
X85940476Y-101011904D01*
X85821428Y-100892857D01*
X85702380Y-100654761D01*
X85702380Y-99940476D01*
X85821428Y-99702380D01*
X85940476Y-99583333D01*
X86178571Y-99464285D01*
X86654761Y-99464285D01*
X86892857Y-99583333D01*
X89154761Y-99464285D02*
X89154761Y-101130952D01*
X88083333Y-99464285D02*
X88083333Y-100773809D01*
X88202380Y-101011904D01*
X88440476Y-101130952D01*
X88797619Y-101130952D01*
X89035714Y-101011904D01*
X89154761Y-100892857D01*
X90345238Y-101130952D02*
X90345238Y-99464285D01*
X90345238Y-98630952D02*
X90226190Y-98750000D01*
X90345238Y-98869047D01*
X90464285Y-98750000D01*
X90345238Y-98630952D01*
X90345238Y-98869047D01*
X91535714Y-99464285D02*
X91535714Y-101130952D01*
X91535714Y-99702380D02*
X91654761Y-99583333D01*
X91892857Y-99464285D01*
X92250000Y-99464285D01*
X92488095Y-99583333D01*
X92607142Y-99821428D01*
X92607142Y-101130952D01*
X93678571Y-101011904D02*
X93916666Y-101130952D01*
X94392857Y-101130952D01*
X94630952Y-101011904D01*
X94750000Y-100773809D01*
X94750000Y-100654761D01*
X94630952Y-100416666D01*
X94392857Y-100297619D01*
X94035714Y-100297619D01*
X93797619Y-100178571D01*
X93678571Y-99940476D01*
X93678571Y-99821428D01*
X93797619Y-99583333D01*
X94035714Y-99464285D01*
X94392857Y-99464285D01*
X94630952Y-99583333D01*
X96178571Y-101130952D02*
X95940476Y-101011904D01*
X95821428Y-100773809D01*
X95821428Y-98630952D01*
X98202380Y-101130952D02*
X98202380Y-99821428D01*
X98083333Y-99583333D01*
X97845238Y-99464285D01*
X97369047Y-99464285D01*
X97130952Y-99583333D01*
X98202380Y-101011904D02*
X97964285Y-101130952D01*
X97369047Y-101130952D01*
X97130952Y-101011904D01*
X97011904Y-100773809D01*
X97011904Y-100535714D01*
X97130952Y-100297619D01*
X97369047Y-100178571D01*
X97964285Y-100178571D01*
X98202380Y-100059523D01*
X99392857Y-99464285D02*
X99392857Y-101130952D01*
X99392857Y-99702380D02*
X99511904Y-99583333D01*
X99750000Y-99464285D01*
X100107142Y-99464285D01*
X100345238Y-99583333D01*
X100464285Y-99821428D01*
X100464285Y-101130952D01*
X102726190Y-101130952D02*
X102726190Y-98630952D01*
X102726190Y-101011904D02*
X102488095Y-101130952D01*
X102011904Y-101130952D01*
X101773809Y-101011904D01*
X101654761Y-100892857D01*
X101535714Y-100654761D01*
X101535714Y-99940476D01*
X101654761Y-99702380D01*
X101773809Y-99583333D01*
X102011904Y-99464285D01*
X102488095Y-99464285D01*
X102726190Y-99583333D01*
D11*
X99172619Y-74791666D02*
X98458333Y-74791666D01*
X98315476Y-74744047D01*
X98220238Y-74648809D01*
X98172619Y-74505952D01*
X98172619Y-74410714D01*
X98172619Y-75791666D02*
X98172619Y-75220238D01*
X98172619Y-75505952D02*
X99172619Y-75505952D01*
X99029761Y-75410714D01*
X98934523Y-75315476D01*
X98886904Y-75220238D01*
X73833333Y-65102380D02*
X73500000Y-64626190D01*
X73261904Y-65102380D02*
X73261904Y-64102380D01*
X73642857Y-64102380D01*
X73738095Y-64150000D01*
X73785714Y-64197619D01*
X73833333Y-64292857D01*
X73833333Y-64435714D01*
X73785714Y-64530952D01*
X73738095Y-64578571D01*
X73642857Y-64626190D01*
X73261904Y-64626190D01*
X74214285Y-64197619D02*
X74261904Y-64150000D01*
X74357142Y-64102380D01*
X74595238Y-64102380D01*
X74690476Y-64150000D01*
X74738095Y-64197619D01*
X74785714Y-64292857D01*
X74785714Y-64388095D01*
X74738095Y-64530952D01*
X74166666Y-65102380D01*
X74785714Y-65102380D01*
X90352380Y-63761904D02*
X91161904Y-63761904D01*
X91257142Y-63714285D01*
X91304761Y-63666666D01*
X91352380Y-63571428D01*
X91352380Y-63380952D01*
X91304761Y-63285714D01*
X91257142Y-63238095D01*
X91161904Y-63190476D01*
X90352380Y-63190476D01*
X91352380Y-62190476D02*
X91352380Y-62761904D01*
X91352380Y-62476190D02*
X90352380Y-62476190D01*
X90495238Y-62571428D01*
X90590476Y-62666666D01*
X90638095Y-62761904D01*
X95795833Y-56357142D02*
X95748214Y-56404761D01*
X95605357Y-56452380D01*
X95510119Y-56452380D01*
X95367261Y-56404761D01*
X95272023Y-56309523D01*
X95224404Y-56214285D01*
X95176785Y-56023809D01*
X95176785Y-55880952D01*
X95224404Y-55690476D01*
X95272023Y-55595238D01*
X95367261Y-55500000D01*
X95510119Y-55452380D01*
X95605357Y-55452380D01*
X95748214Y-55500000D01*
X95795833Y-55547619D01*
X96129166Y-55452380D02*
X96748214Y-55452380D01*
X96414880Y-55833333D01*
X96557738Y-55833333D01*
X96652976Y-55880952D01*
X96700595Y-55928571D01*
X96748214Y-56023809D01*
X96748214Y-56261904D01*
X96700595Y-56357142D01*
X96652976Y-56404761D01*
X96557738Y-56452380D01*
X96272023Y-56452380D01*
X96176785Y-56404761D01*
X96129166Y-56357142D01*
X73833333Y-70102380D02*
X73500000Y-69626190D01*
X73261904Y-70102380D02*
X73261904Y-69102380D01*
X73642857Y-69102380D01*
X73738095Y-69150000D01*
X73785714Y-69197619D01*
X73833333Y-69292857D01*
X73833333Y-69435714D01*
X73785714Y-69530952D01*
X73738095Y-69578571D01*
X73642857Y-69626190D01*
X73261904Y-69626190D01*
X74166666Y-69102380D02*
X74785714Y-69102380D01*
X74452380Y-69483333D01*
X74595238Y-69483333D01*
X74690476Y-69530952D01*
X74738095Y-69578571D01*
X74785714Y-69673809D01*
X74785714Y-69911904D01*
X74738095Y-70007142D01*
X74690476Y-70054761D01*
X74595238Y-70102380D01*
X74309523Y-70102380D01*
X74214285Y-70054761D01*
X74166666Y-70007142D01*
X67236904Y-61802380D02*
X67236904Y-60802380D01*
X67475000Y-60802380D01*
X67617857Y-60850000D01*
X67713095Y-60945238D01*
X67760714Y-61040476D01*
X67808333Y-61230952D01*
X67808333Y-61373809D01*
X67760714Y-61564285D01*
X67713095Y-61659523D01*
X67617857Y-61754761D01*
X67475000Y-61802380D01*
X67236904Y-61802380D01*
X68189285Y-60897619D02*
X68236904Y-60850000D01*
X68332142Y-60802380D01*
X68570238Y-60802380D01*
X68665476Y-60850000D01*
X68713095Y-60897619D01*
X68760714Y-60992857D01*
X68760714Y-61088095D01*
X68713095Y-61230952D01*
X68141666Y-61802380D01*
X68760714Y-61802380D01*
X67236904Y-56802380D02*
X67236904Y-55802380D01*
X67475000Y-55802380D01*
X67617857Y-55850000D01*
X67713095Y-55945238D01*
X67760714Y-56040476D01*
X67808333Y-56230952D01*
X67808333Y-56373809D01*
X67760714Y-56564285D01*
X67713095Y-56659523D01*
X67617857Y-56754761D01*
X67475000Y-56802380D01*
X67236904Y-56802380D01*
X68760714Y-56802380D02*
X68189285Y-56802380D01*
X68475000Y-56802380D02*
X68475000Y-55802380D01*
X68379761Y-55945238D01*
X68284523Y-56040476D01*
X68189285Y-56088095D01*
X83720833Y-56357142D02*
X83673214Y-56404761D01*
X83530357Y-56452380D01*
X83435119Y-56452380D01*
X83292261Y-56404761D01*
X83197023Y-56309523D01*
X83149404Y-56214285D01*
X83101785Y-56023809D01*
X83101785Y-55880952D01*
X83149404Y-55690476D01*
X83197023Y-55595238D01*
X83292261Y-55500000D01*
X83435119Y-55452380D01*
X83530357Y-55452380D01*
X83673214Y-55500000D01*
X83720833Y-55547619D01*
X84101785Y-55547619D02*
X84149404Y-55500000D01*
X84244642Y-55452380D01*
X84482738Y-55452380D01*
X84577976Y-55500000D01*
X84625595Y-55547619D01*
X84673214Y-55642857D01*
X84673214Y-55738095D01*
X84625595Y-55880952D01*
X84054166Y-56452380D01*
X84673214Y-56452380D01*
X67236904Y-66802380D02*
X67236904Y-65802380D01*
X67475000Y-65802380D01*
X67617857Y-65850000D01*
X67713095Y-65945238D01*
X67760714Y-66040476D01*
X67808333Y-66230952D01*
X67808333Y-66373809D01*
X67760714Y-66564285D01*
X67713095Y-66659523D01*
X67617857Y-66754761D01*
X67475000Y-66802380D01*
X67236904Y-66802380D01*
X68141666Y-65802380D02*
X68760714Y-65802380D01*
X68427380Y-66183333D01*
X68570238Y-66183333D01*
X68665476Y-66230952D01*
X68713095Y-66278571D01*
X68760714Y-66373809D01*
X68760714Y-66611904D01*
X68713095Y-66707142D01*
X68665476Y-66754761D01*
X68570238Y-66802380D01*
X68284523Y-66802380D01*
X68189285Y-66754761D01*
X68141666Y-66707142D01*
X89758333Y-56357142D02*
X89710714Y-56404761D01*
X89567857Y-56452380D01*
X89472619Y-56452380D01*
X89329761Y-56404761D01*
X89234523Y-56309523D01*
X89186904Y-56214285D01*
X89139285Y-56023809D01*
X89139285Y-55880952D01*
X89186904Y-55690476D01*
X89234523Y-55595238D01*
X89329761Y-55500000D01*
X89472619Y-55452380D01*
X89567857Y-55452380D01*
X89710714Y-55500000D01*
X89758333Y-55547619D01*
X90710714Y-56452380D02*
X90139285Y-56452380D01*
X90425000Y-56452380D02*
X90425000Y-55452380D01*
X90329761Y-55595238D01*
X90234523Y-55690476D01*
X90139285Y-55738095D01*
X88666666Y-71607380D02*
X88666666Y-72321666D01*
X88619047Y-72464523D01*
X88523809Y-72559761D01*
X88380952Y-72607380D01*
X88285714Y-72607380D01*
X89095238Y-71702619D02*
X89142857Y-71655000D01*
X89238095Y-71607380D01*
X89476190Y-71607380D01*
X89571428Y-71655000D01*
X89619047Y-71702619D01*
X89666666Y-71797857D01*
X89666666Y-71893095D01*
X89619047Y-72035952D01*
X89047619Y-72607380D01*
X89666666Y-72607380D01*
X77833333Y-56357142D02*
X77785714Y-56404761D01*
X77642857Y-56452380D01*
X77547619Y-56452380D01*
X77404761Y-56404761D01*
X77309523Y-56309523D01*
X77261904Y-56214285D01*
X77214285Y-56023809D01*
X77214285Y-55880952D01*
X77261904Y-55690476D01*
X77309523Y-55595238D01*
X77404761Y-55500000D01*
X77547619Y-55452380D01*
X77642857Y-55452380D01*
X77785714Y-55500000D01*
X77833333Y-55547619D01*
X78690476Y-55785714D02*
X78690476Y-56452380D01*
X78452380Y-55404761D02*
X78214285Y-56119047D01*
X78833333Y-56119047D01*
X73833333Y-60102380D02*
X73500000Y-59626190D01*
X73261904Y-60102380D02*
X73261904Y-59102380D01*
X73642857Y-59102380D01*
X73738095Y-59150000D01*
X73785714Y-59197619D01*
X73833333Y-59292857D01*
X73833333Y-59435714D01*
X73785714Y-59530952D01*
X73738095Y-59578571D01*
X73642857Y-59626190D01*
X73261904Y-59626190D01*
X74785714Y-60102380D02*
X74214285Y-60102380D01*
X74500000Y-60102380D02*
X74500000Y-59102380D01*
X74404761Y-59245238D01*
X74309523Y-59340476D01*
X74214285Y-59388095D01*
X92357142Y-63166666D02*
X92404761Y-63214285D01*
X92452380Y-63357142D01*
X92452380Y-63452380D01*
X92404761Y-63595238D01*
X92309523Y-63690476D01*
X92214285Y-63738095D01*
X92023809Y-63785714D01*
X91880952Y-63785714D01*
X91690476Y-63738095D01*
X91595238Y-63690476D01*
X91500000Y-63595238D01*
X91452380Y-63452380D01*
X91452380Y-63357142D01*
X91500000Y-63214285D01*
X91547619Y-63166666D01*
X91452380Y-62261904D02*
X91452380Y-62738095D01*
X91928571Y-62785714D01*
X91880952Y-62738095D01*
X91833333Y-62642857D01*
X91833333Y-62404761D01*
X91880952Y-62309523D01*
X91928571Y-62261904D01*
X92023809Y-62214285D01*
X92261904Y-62214285D01*
X92357142Y-62261904D01*
X92404761Y-62309523D01*
X92452380Y-62404761D01*
X92452380Y-62642857D01*
X92404761Y-62738095D01*
X92357142Y-62785714D01*
D13*
X131125000Y-60125000D02*
X100875000Y-60125000D01*
X100875000Y-60125000D02*
X100875000Y-90125000D01*
X100875000Y-90125000D02*
X131125000Y-90125000D01*
X131125000Y-90125000D02*
X131125000Y-60125000D01*
X74227064Y-63735000D02*
X73772936Y-63735000D01*
X74227064Y-62265000D02*
X73772936Y-62265000D01*
X79940000Y-63000000D02*
X79940000Y-64950000D01*
X79940000Y-63000000D02*
X79940000Y-61050000D01*
X90060000Y-63000000D02*
X90060000Y-64950000D01*
X90060000Y-63000000D02*
X90060000Y-59550000D01*
X96223752Y-53265000D02*
X95701248Y-53265000D01*
X96223752Y-54735000D02*
X95701248Y-54735000D01*
X74227064Y-67265000D02*
X73772936Y-67265000D01*
X74227064Y-68735000D02*
X73772936Y-68735000D01*
X95170000Y-45145000D02*
X96500000Y-45145000D01*
X95170000Y-50345000D02*
X97830000Y-50345000D01*
X95170000Y-47745000D02*
X97830000Y-47745000D01*
X95170000Y-47745000D02*
X95170000Y-50345000D01*
X95170000Y-46475000D02*
X95170000Y-45145000D01*
X97830000Y-47745000D02*
X97830000Y-50345000D01*
X66115000Y-63960000D02*
X68975000Y-63960000D01*
X68975000Y-62040000D02*
X66115000Y-62040000D01*
X66115000Y-62040000D02*
X66115000Y-63960000D01*
X66115000Y-57040000D02*
X66115000Y-58960000D01*
X66115000Y-58960000D02*
X68975000Y-58960000D01*
X68975000Y-57040000D02*
X66115000Y-57040000D01*
X84148752Y-53265000D02*
X83626248Y-53265000D01*
X84148752Y-54735000D02*
X83626248Y-54735000D01*
X68975000Y-67040000D02*
X66115000Y-67040000D01*
X66115000Y-68960000D02*
X68975000Y-68960000D01*
X66115000Y-67040000D02*
X66115000Y-68960000D01*
X90186252Y-54735000D02*
X89663748Y-54735000D01*
X90186252Y-53265000D02*
X89663748Y-53265000D01*
D14*
X114700000Y-46839040D02*
X114700000Y-50600000D01*
X102674981Y-44824994D02*
X115325019Y-44824994D01*
X103200000Y-50600000D02*
X103200000Y-46800000D01*
X114700000Y-45400000D02*
X112200000Y-45400000D01*
X103200000Y-46800000D02*
X102674981Y-46800000D01*
X102674981Y-51175006D02*
X102674981Y-44824994D01*
X115325019Y-51175006D02*
X115325019Y-44824994D01*
X114700000Y-46012344D02*
X114700000Y-45400000D01*
X115325019Y-46012344D02*
X114700000Y-46012344D01*
X115325019Y-46839040D02*
X114700000Y-46839040D01*
X114700000Y-50600000D02*
X103200000Y-50600000D01*
X102674981Y-51175006D02*
X115325019Y-51175006D01*
X103200000Y-46048616D02*
X103200000Y-45400000D01*
X103200000Y-45400000D02*
X105579858Y-45400000D01*
X105579858Y-45400000D02*
X105579858Y-44824994D01*
X102674981Y-46048616D02*
X103200000Y-46048616D01*
X112200000Y-45400000D02*
X112200000Y-45000000D01*
X102674981Y-46800000D02*
X102674981Y-46802159D01*
D15*
X115357835Y-44901067D02*
G75*
G03*
X115357835Y-44901067I-29997J0D01*
G01*
D13*
X102510000Y-55670000D02*
X102510000Y-58330000D01*
X112730000Y-55670000D02*
X112730000Y-58330000D01*
X112730000Y-55670000D02*
X102510000Y-55670000D01*
X112730000Y-58330000D02*
X102510000Y-58330000D01*
X115330000Y-55670000D02*
X115330000Y-57000000D01*
X114000000Y-55670000D02*
X115330000Y-55670000D01*
X78910000Y-76076900D02*
X87540000Y-76076900D01*
X87540000Y-84725000D02*
X87950000Y-84725000D01*
X78910000Y-74069285D02*
X87540000Y-74069285D01*
X78910000Y-74305475D02*
X87540000Y-74305475D01*
X78910000Y-75840710D02*
X87540000Y-75840710D01*
X87540000Y-74565000D02*
X87890000Y-74565000D01*
X78910000Y-75014045D02*
X87540000Y-75014045D01*
X78910000Y-74777855D02*
X87540000Y-74777855D01*
X78910000Y-74659760D02*
X87540000Y-74659760D01*
X78910000Y-75250235D02*
X87540000Y-75250235D01*
X78910000Y-74423570D02*
X87540000Y-74423570D01*
X78910000Y-74187380D02*
X87540000Y-74187380D01*
X87540000Y-79645000D02*
X87950000Y-79645000D01*
X78910000Y-75604520D02*
X87540000Y-75604520D01*
X87540000Y-75285000D02*
X87890000Y-75285000D01*
X78910000Y-74895950D02*
X87540000Y-74895950D01*
X78910000Y-86415000D02*
X87540000Y-86415000D01*
X87540000Y-80365000D02*
X87950000Y-80365000D01*
X78910000Y-75368330D02*
X87540000Y-75368330D01*
X89000000Y-73595000D02*
X90110000Y-73595000D01*
X78910000Y-73595000D02*
X87540000Y-73595000D01*
X87540000Y-77825000D02*
X87950000Y-77825000D01*
X78910000Y-75958805D02*
X87540000Y-75958805D01*
X78910000Y-81275000D02*
X87540000Y-81275000D01*
X78910000Y-76195000D02*
X87540000Y-76195000D01*
X78910000Y-73951190D02*
X87540000Y-73951190D01*
X87540000Y-82185000D02*
X87950000Y-82185000D01*
X78910000Y-75722615D02*
X87540000Y-75722615D01*
X87540000Y-77105000D02*
X87950000Y-77105000D01*
X87540000Y-82905000D02*
X87950000Y-82905000D01*
X78910000Y-73595000D02*
X78910000Y-86415000D01*
X78910000Y-83815000D02*
X87540000Y-83815000D01*
X90110000Y-73595000D02*
X90110000Y-74925000D01*
X87540000Y-73595000D02*
X87540000Y-86415000D01*
X78910000Y-74541665D02*
X87540000Y-74541665D01*
X78910000Y-73715000D02*
X87540000Y-73715000D01*
X78910000Y-75132140D02*
X87540000Y-75132140D01*
X78910000Y-73833095D02*
X87540000Y-73833095D01*
X87540000Y-85445000D02*
X87950000Y-85445000D01*
X78910000Y-78735000D02*
X87540000Y-78735000D01*
X78910000Y-75486425D02*
X87540000Y-75486425D01*
X77701248Y-53265000D02*
X78223752Y-53265000D01*
X77701248Y-54735000D02*
X78223752Y-54735000D01*
X74227064Y-58735000D02*
X73772936Y-58735000D01*
X74227064Y-57265000D02*
X73772936Y-57265000D01*
X93265000Y-62738748D02*
X93265000Y-63261252D01*
X94735000Y-62738748D02*
X94735000Y-63261252D01*
%LPC*%
D16*
X123625000Y-80275000D03*
D17*
X110625000Y-64625000D03*
X110625000Y-85625000D03*
D16*
X123625000Y-69975000D03*
D18*
X103625000Y-67505000D03*
X103625000Y-72585000D03*
X103625000Y-77665000D03*
X103625000Y-82745000D03*
D19*
X75000000Y-63000000D03*
X73000000Y-63000000D03*
D20*
X89445000Y-60525000D03*
X88175000Y-60525000D03*
X86905000Y-60525000D03*
X85635000Y-60525000D03*
X84365000Y-60525000D03*
X83095000Y-60525000D03*
X81825000Y-60525000D03*
X80555000Y-60525000D03*
X80555000Y-65475000D03*
X81825000Y-65475000D03*
X83095000Y-65475000D03*
X84365000Y-65475000D03*
X85635000Y-65475000D03*
X86905000Y-65475000D03*
X88175000Y-65475000D03*
X89445000Y-65475000D03*
D21*
X97000000Y-54000000D03*
X94925000Y-54000000D03*
D19*
X75000000Y-68000000D03*
X73000000Y-68000000D03*
D22*
X96500000Y-46475000D03*
D23*
X96500000Y-49015000D03*
D24*
X66950000Y-63000000D03*
X69000000Y-63000000D03*
X66950000Y-58000000D03*
X69000000Y-58000000D03*
D21*
X84925000Y-54000000D03*
X82850000Y-54000000D03*
D24*
X66950000Y-68000000D03*
X69000000Y-68000000D03*
D21*
X90962500Y-54000000D03*
X88887500Y-54000000D03*
D25*
X113000025Y-47000000D03*
D26*
X113000025Y-49000000D03*
X111000025Y-47000000D03*
X111000025Y-49000000D03*
X109000025Y-47000000D03*
X109000025Y-49000000D03*
X107000025Y-47000000D03*
X107000025Y-49000000D03*
X105000025Y-47000000D03*
X105000025Y-49000000D03*
D22*
X114000000Y-57000000D03*
D23*
X111460000Y-57000000D03*
X108920000Y-57000000D03*
X106380000Y-57000000D03*
X103840000Y-57000000D03*
D22*
X89000000Y-74925000D03*
D23*
X89000000Y-77465000D03*
X89000000Y-80005000D03*
X89000000Y-82545000D03*
X89000000Y-85085000D03*
D27*
X76925000Y-54000000D03*
X79000000Y-54000000D03*
D19*
X75000000Y-58000000D03*
X73000000Y-58000000D03*
D28*
X94000000Y-61962500D03*
X94000000Y-64037500D03*
M02*
