%TF.GenerationSoftware,KiCad,Pcbnew,(6.0.8)*%
%TF.CreationDate,2022-10-08T19:14:47-07:00*%
%TF.ProjectId,opnsense-gps-pps,6f706e73-656e-4736-952d-6770732d7070,rev?*%
%TF.SameCoordinates,Original*%
%TF.FileFunction,Drillmap*%
%TF.FilePolarity,Positive*%
%FSLAX45Y45*%
G04 Gerber Fmt 4.5, Leading zero omitted, Abs format (unit mm)*
G04 Created by KiCad (PCBNEW (6.0.8)) date 2022-10-08 19:14:47*
%MOMM*%
%LPD*%
G01*
G04 APERTURE LIST*
%ADD10C,2.850000*%
%ADD11C,0.100000*%
%ADD12C,3.075000*%
%ADD13C,0.200000*%
%ADD14C,0.230000*%
%ADD15C,0.400000*%
G04 APERTURE END LIST*
D10*
X7142500Y-5000000D02*
G75*
G03*
X7142500Y-5000000I-142500J0D01*
G01*
X7142500Y-9700000D02*
G75*
G03*
X7142500Y-9700000I-142500J0D01*
G01*
X12642500Y-9700000D02*
G75*
G03*
X12642500Y-9700000I-142500J0D01*
G01*
D11*
X6700000Y-4400000D02*
X12800000Y-4400000D01*
X6400000Y-10000000D02*
X6400000Y-4700000D01*
X12800000Y-10300000D02*
X6700000Y-10300000D01*
X13100000Y-4700000D02*
X13100000Y-10000000D01*
X12800000Y-10300000D02*
G75*
G03*
X13100000Y-10000000I0J300000D01*
G01*
X6400000Y-10000000D02*
G75*
G03*
X6700000Y-10300000I300000J0D01*
G01*
X6700000Y-4400000D02*
G75*
G03*
X6400000Y-4700000I0J-300000D01*
G01*
X13100000Y-4700000D02*
G75*
G03*
X12800000Y-4400000I-300000J0D01*
G01*
D12*
X6953750Y-7800000D02*
G75*
G03*
X6953750Y-7800000I-153750J0D01*
G01*
D10*
X12642500Y-5000000D02*
G75*
G03*
X12642500Y-5000000I-142500J0D01*
G01*
D13*
D14*
X10947500Y-6347500D02*
X11177500Y-6577500D01*
X11177500Y-6347500D02*
X10947500Y-6577500D01*
X10947500Y-8447500D02*
X11177500Y-8677500D01*
X11177500Y-8447500D02*
X10947500Y-8677500D01*
D15*
X12562500Y-6997500D02*
G75*
G03*
X12562500Y-6997500I-200000J0D01*
G01*
X12562500Y-8027500D02*
G75*
G03*
X12562500Y-8027500I-200000J0D01*
G01*
D13*
X6652619Y-10615476D02*
X6652619Y-10415476D01*
X6700238Y-10415476D01*
X6728809Y-10425000D01*
X6747857Y-10444048D01*
X6757381Y-10463095D01*
X6766905Y-10501190D01*
X6766905Y-10529762D01*
X6757381Y-10567857D01*
X6747857Y-10586905D01*
X6728809Y-10605952D01*
X6700238Y-10615476D01*
X6652619Y-10615476D01*
X6852619Y-10615476D02*
X6852619Y-10482143D01*
X6852619Y-10520238D02*
X6862143Y-10501190D01*
X6871667Y-10491667D01*
X6890714Y-10482143D01*
X6909762Y-10482143D01*
X6976428Y-10615476D02*
X6976428Y-10482143D01*
X6976428Y-10415476D02*
X6966905Y-10425000D01*
X6976428Y-10434524D01*
X6985952Y-10425000D01*
X6976428Y-10415476D01*
X6976428Y-10434524D01*
X7100238Y-10615476D02*
X7081190Y-10605952D01*
X7071667Y-10586905D01*
X7071667Y-10415476D01*
X7205000Y-10615476D02*
X7185952Y-10605952D01*
X7176428Y-10586905D01*
X7176428Y-10415476D01*
X7433571Y-10615476D02*
X7433571Y-10415476D01*
X7500238Y-10558333D01*
X7566905Y-10415476D01*
X7566905Y-10615476D01*
X7747857Y-10615476D02*
X7747857Y-10510714D01*
X7738333Y-10491667D01*
X7719286Y-10482143D01*
X7681190Y-10482143D01*
X7662143Y-10491667D01*
X7747857Y-10605952D02*
X7728809Y-10615476D01*
X7681190Y-10615476D01*
X7662143Y-10605952D01*
X7652619Y-10586905D01*
X7652619Y-10567857D01*
X7662143Y-10548810D01*
X7681190Y-10539286D01*
X7728809Y-10539286D01*
X7747857Y-10529762D01*
X7843095Y-10482143D02*
X7843095Y-10682143D01*
X7843095Y-10491667D02*
X7862143Y-10482143D01*
X7900238Y-10482143D01*
X7919286Y-10491667D01*
X7928809Y-10501190D01*
X7938333Y-10520238D01*
X7938333Y-10577381D01*
X7928809Y-10596429D01*
X7919286Y-10605952D01*
X7900238Y-10615476D01*
X7862143Y-10615476D01*
X7843095Y-10605952D01*
X8024048Y-10596429D02*
X8033571Y-10605952D01*
X8024048Y-10615476D01*
X8014524Y-10605952D01*
X8024048Y-10596429D01*
X8024048Y-10615476D01*
X8024048Y-10491667D02*
X8033571Y-10501190D01*
X8024048Y-10510714D01*
X8014524Y-10501190D01*
X8024048Y-10491667D01*
X8024048Y-10510714D01*
X6195000Y-10845000D02*
X6395000Y-11045000D01*
X6395000Y-10845000D02*
X6195000Y-11045000D01*
X6643095Y-10854524D02*
X6652619Y-10845000D01*
X6671667Y-10835476D01*
X6719286Y-10835476D01*
X6738333Y-10845000D01*
X6747857Y-10854524D01*
X6757381Y-10873571D01*
X6757381Y-10892619D01*
X6747857Y-10921190D01*
X6633571Y-11035476D01*
X6757381Y-11035476D01*
X6843095Y-11016429D02*
X6852619Y-11025952D01*
X6843095Y-11035476D01*
X6833571Y-11025952D01*
X6843095Y-11016429D01*
X6843095Y-11035476D01*
X6919286Y-10835476D02*
X7043095Y-10835476D01*
X6976428Y-10911667D01*
X7005000Y-10911667D01*
X7024048Y-10921190D01*
X7033571Y-10930714D01*
X7043095Y-10949762D01*
X7043095Y-10997381D01*
X7033571Y-11016429D01*
X7024048Y-11025952D01*
X7005000Y-11035476D01*
X6947857Y-11035476D01*
X6928809Y-11025952D01*
X6919286Y-11016429D01*
X7166905Y-10835476D02*
X7185952Y-10835476D01*
X7205000Y-10845000D01*
X7214524Y-10854524D01*
X7224048Y-10873571D01*
X7233571Y-10911667D01*
X7233571Y-10959286D01*
X7224048Y-10997381D01*
X7214524Y-11016429D01*
X7205000Y-11025952D01*
X7185952Y-11035476D01*
X7166905Y-11035476D01*
X7147857Y-11025952D01*
X7138333Y-11016429D01*
X7128809Y-10997381D01*
X7119286Y-10959286D01*
X7119286Y-10911667D01*
X7128809Y-10873571D01*
X7138333Y-10854524D01*
X7147857Y-10845000D01*
X7166905Y-10835476D01*
X7357381Y-10835476D02*
X7376428Y-10835476D01*
X7395476Y-10845000D01*
X7405000Y-10854524D01*
X7414524Y-10873571D01*
X7424048Y-10911667D01*
X7424048Y-10959286D01*
X7414524Y-10997381D01*
X7405000Y-11016429D01*
X7395476Y-11025952D01*
X7376428Y-11035476D01*
X7357381Y-11035476D01*
X7338333Y-11025952D01*
X7328809Y-11016429D01*
X7319286Y-10997381D01*
X7309762Y-10959286D01*
X7309762Y-10911667D01*
X7319286Y-10873571D01*
X7328809Y-10854524D01*
X7338333Y-10845000D01*
X7357381Y-10835476D01*
X7509762Y-11035476D02*
X7509762Y-10902143D01*
X7509762Y-10921190D02*
X7519286Y-10911667D01*
X7538333Y-10902143D01*
X7566905Y-10902143D01*
X7585952Y-10911667D01*
X7595476Y-10930714D01*
X7595476Y-11035476D01*
X7595476Y-10930714D02*
X7605000Y-10911667D01*
X7624048Y-10902143D01*
X7652619Y-10902143D01*
X7671667Y-10911667D01*
X7681190Y-10930714D01*
X7681190Y-11035476D01*
X7776428Y-11035476D02*
X7776428Y-10902143D01*
X7776428Y-10921190D02*
X7785952Y-10911667D01*
X7805000Y-10902143D01*
X7833571Y-10902143D01*
X7852619Y-10911667D01*
X7862143Y-10930714D01*
X7862143Y-11035476D01*
X7862143Y-10930714D02*
X7871667Y-10911667D01*
X7890714Y-10902143D01*
X7919286Y-10902143D01*
X7938333Y-10911667D01*
X7947857Y-10930714D01*
X7947857Y-11035476D01*
X8338333Y-10825952D02*
X8166905Y-11083095D01*
X8595476Y-10835476D02*
X8614524Y-10835476D01*
X8633571Y-10845000D01*
X8643095Y-10854524D01*
X8652619Y-10873571D01*
X8662143Y-10911667D01*
X8662143Y-10959286D01*
X8652619Y-10997381D01*
X8643095Y-11016429D01*
X8633571Y-11025952D01*
X8614524Y-11035476D01*
X8595476Y-11035476D01*
X8576429Y-11025952D01*
X8566905Y-11016429D01*
X8557381Y-10997381D01*
X8547857Y-10959286D01*
X8547857Y-10911667D01*
X8557381Y-10873571D01*
X8566905Y-10854524D01*
X8576429Y-10845000D01*
X8595476Y-10835476D01*
X8747857Y-11016429D02*
X8757381Y-11025952D01*
X8747857Y-11035476D01*
X8738333Y-11025952D01*
X8747857Y-11016429D01*
X8747857Y-11035476D01*
X8881190Y-10835476D02*
X8900238Y-10835476D01*
X8919286Y-10845000D01*
X8928810Y-10854524D01*
X8938333Y-10873571D01*
X8947857Y-10911667D01*
X8947857Y-10959286D01*
X8938333Y-10997381D01*
X8928810Y-11016429D01*
X8919286Y-11025952D01*
X8900238Y-11035476D01*
X8881190Y-11035476D01*
X8862143Y-11025952D01*
X8852619Y-11016429D01*
X8843095Y-10997381D01*
X8833571Y-10959286D01*
X8833571Y-10911667D01*
X8843095Y-10873571D01*
X8852619Y-10854524D01*
X8862143Y-10845000D01*
X8881190Y-10835476D01*
X9043095Y-11035476D02*
X9081190Y-11035476D01*
X9100238Y-11025952D01*
X9109762Y-11016429D01*
X9128810Y-10987857D01*
X9138333Y-10949762D01*
X9138333Y-10873571D01*
X9128810Y-10854524D01*
X9119286Y-10845000D01*
X9100238Y-10835476D01*
X9062143Y-10835476D01*
X9043095Y-10845000D01*
X9033571Y-10854524D01*
X9024048Y-10873571D01*
X9024048Y-10921190D01*
X9033571Y-10940238D01*
X9043095Y-10949762D01*
X9062143Y-10959286D01*
X9100238Y-10959286D01*
X9119286Y-10949762D01*
X9128810Y-10940238D01*
X9138333Y-10921190D01*
X9262143Y-10835476D02*
X9281190Y-10835476D01*
X9300238Y-10845000D01*
X9309762Y-10854524D01*
X9319286Y-10873571D01*
X9328810Y-10911667D01*
X9328810Y-10959286D01*
X9319286Y-10997381D01*
X9309762Y-11016429D01*
X9300238Y-11025952D01*
X9281190Y-11035476D01*
X9262143Y-11035476D01*
X9243095Y-11025952D01*
X9233571Y-11016429D01*
X9224048Y-10997381D01*
X9214524Y-10959286D01*
X9214524Y-10911667D01*
X9224048Y-10873571D01*
X9233571Y-10854524D01*
X9243095Y-10845000D01*
X9262143Y-10835476D01*
X9500238Y-10835476D02*
X9462143Y-10835476D01*
X9443095Y-10845000D01*
X9433571Y-10854524D01*
X9414524Y-10883095D01*
X9405000Y-10921190D01*
X9405000Y-10997381D01*
X9414524Y-11016429D01*
X9424048Y-11025952D01*
X9443095Y-11035476D01*
X9481190Y-11035476D01*
X9500238Y-11025952D01*
X9509762Y-11016429D01*
X9519286Y-10997381D01*
X9519286Y-10949762D01*
X9509762Y-10930714D01*
X9500238Y-10921190D01*
X9481190Y-10911667D01*
X9443095Y-10911667D01*
X9424048Y-10921190D01*
X9414524Y-10930714D01*
X9405000Y-10949762D01*
X9595476Y-10835476D02*
X9595476Y-10873571D01*
X9671667Y-10835476D02*
X9671667Y-10873571D01*
X9966905Y-11111667D02*
X9957381Y-11102143D01*
X9938333Y-11073571D01*
X9928810Y-11054524D01*
X9919286Y-11025952D01*
X9909762Y-10978333D01*
X9909762Y-10940238D01*
X9919286Y-10892619D01*
X9928810Y-10864048D01*
X9938333Y-10845000D01*
X9957381Y-10816429D01*
X9966905Y-10806905D01*
X10033571Y-10854524D02*
X10043095Y-10845000D01*
X10062143Y-10835476D01*
X10109762Y-10835476D01*
X10128810Y-10845000D01*
X10138333Y-10854524D01*
X10147857Y-10873571D01*
X10147857Y-10892619D01*
X10138333Y-10921190D01*
X10024048Y-11035476D01*
X10147857Y-11035476D01*
X10385952Y-11035476D02*
X10385952Y-10835476D01*
X10471667Y-11035476D02*
X10471667Y-10930714D01*
X10462143Y-10911667D01*
X10443095Y-10902143D01*
X10414524Y-10902143D01*
X10395476Y-10911667D01*
X10385952Y-10921190D01*
X10595476Y-11035476D02*
X10576429Y-11025952D01*
X10566905Y-11016429D01*
X10557381Y-10997381D01*
X10557381Y-10940238D01*
X10566905Y-10921190D01*
X10576429Y-10911667D01*
X10595476Y-10902143D01*
X10624048Y-10902143D01*
X10643095Y-10911667D01*
X10652619Y-10921190D01*
X10662143Y-10940238D01*
X10662143Y-10997381D01*
X10652619Y-11016429D01*
X10643095Y-11025952D01*
X10624048Y-11035476D01*
X10595476Y-11035476D01*
X10776429Y-11035476D02*
X10757381Y-11025952D01*
X10747857Y-11006905D01*
X10747857Y-10835476D01*
X10928810Y-11025952D02*
X10909762Y-11035476D01*
X10871667Y-11035476D01*
X10852619Y-11025952D01*
X10843095Y-11006905D01*
X10843095Y-10930714D01*
X10852619Y-10911667D01*
X10871667Y-10902143D01*
X10909762Y-10902143D01*
X10928810Y-10911667D01*
X10938333Y-10930714D01*
X10938333Y-10949762D01*
X10843095Y-10968810D01*
X11014524Y-11025952D02*
X11033571Y-11035476D01*
X11071667Y-11035476D01*
X11090714Y-11025952D01*
X11100238Y-11006905D01*
X11100238Y-10997381D01*
X11090714Y-10978333D01*
X11071667Y-10968810D01*
X11043095Y-10968810D01*
X11024048Y-10959286D01*
X11014524Y-10940238D01*
X11014524Y-10930714D01*
X11024048Y-10911667D01*
X11043095Y-10902143D01*
X11071667Y-10902143D01*
X11090714Y-10911667D01*
X11166905Y-11111667D02*
X11176429Y-11102143D01*
X11195476Y-11073571D01*
X11205000Y-11054524D01*
X11214524Y-11025952D01*
X11224048Y-10978333D01*
X11224048Y-10940238D01*
X11214524Y-10892619D01*
X11205000Y-10864048D01*
X11195476Y-10845000D01*
X11176429Y-10816429D01*
X11166905Y-10806905D01*
X11528809Y-11111667D02*
X11519286Y-11102143D01*
X11500238Y-11073571D01*
X11490714Y-11054524D01*
X11481190Y-11025952D01*
X11471667Y-10978333D01*
X11471667Y-10940238D01*
X11481190Y-10892619D01*
X11490714Y-10864048D01*
X11500238Y-10845000D01*
X11519286Y-10816429D01*
X11528809Y-10806905D01*
X11605000Y-10902143D02*
X11605000Y-11035476D01*
X11605000Y-10921190D02*
X11614524Y-10911667D01*
X11633571Y-10902143D01*
X11662143Y-10902143D01*
X11681190Y-10911667D01*
X11690714Y-10930714D01*
X11690714Y-11035476D01*
X11814524Y-11035476D02*
X11795476Y-11025952D01*
X11785952Y-11016429D01*
X11776428Y-10997381D01*
X11776428Y-10940238D01*
X11785952Y-10921190D01*
X11795476Y-10911667D01*
X11814524Y-10902143D01*
X11843095Y-10902143D01*
X11862143Y-10911667D01*
X11871667Y-10921190D01*
X11881190Y-10940238D01*
X11881190Y-10997381D01*
X11871667Y-11016429D01*
X11862143Y-11025952D01*
X11843095Y-11035476D01*
X11814524Y-11035476D01*
X11938333Y-10902143D02*
X12014524Y-10902143D01*
X11966905Y-10835476D02*
X11966905Y-11006905D01*
X11976428Y-11025952D01*
X11995476Y-11035476D01*
X12014524Y-11035476D01*
X12233571Y-10902143D02*
X12233571Y-11102143D01*
X12233571Y-10911667D02*
X12252619Y-10902143D01*
X12290714Y-10902143D01*
X12309762Y-10911667D01*
X12319286Y-10921190D01*
X12328809Y-10940238D01*
X12328809Y-10997381D01*
X12319286Y-11016429D01*
X12309762Y-11025952D01*
X12290714Y-11035476D01*
X12252619Y-11035476D01*
X12233571Y-11025952D01*
X12443095Y-11035476D02*
X12424048Y-11025952D01*
X12414524Y-11006905D01*
X12414524Y-10835476D01*
X12605000Y-11035476D02*
X12605000Y-10930714D01*
X12595476Y-10911667D01*
X12576428Y-10902143D01*
X12538333Y-10902143D01*
X12519286Y-10911667D01*
X12605000Y-11025952D02*
X12585952Y-11035476D01*
X12538333Y-11035476D01*
X12519286Y-11025952D01*
X12509762Y-11006905D01*
X12509762Y-10987857D01*
X12519286Y-10968810D01*
X12538333Y-10959286D01*
X12585952Y-10959286D01*
X12605000Y-10949762D01*
X12671667Y-10902143D02*
X12747857Y-10902143D01*
X12700238Y-10835476D02*
X12700238Y-11006905D01*
X12709762Y-11025952D01*
X12728809Y-11035476D01*
X12747857Y-11035476D01*
X12890714Y-11025952D02*
X12871667Y-11035476D01*
X12833571Y-11035476D01*
X12814524Y-11025952D01*
X12805000Y-11006905D01*
X12805000Y-10930714D01*
X12814524Y-10911667D01*
X12833571Y-10902143D01*
X12871667Y-10902143D01*
X12890714Y-10911667D01*
X12900238Y-10930714D01*
X12900238Y-10949762D01*
X12805000Y-10968810D01*
X13071667Y-11035476D02*
X13071667Y-10835476D01*
X13071667Y-11025952D02*
X13052619Y-11035476D01*
X13014524Y-11035476D01*
X12995476Y-11025952D01*
X12985952Y-11016429D01*
X12976428Y-10997381D01*
X12976428Y-10940238D01*
X12985952Y-10921190D01*
X12995476Y-10911667D01*
X13014524Y-10902143D01*
X13052619Y-10902143D01*
X13071667Y-10911667D01*
X13147857Y-11111667D02*
X13157381Y-11102143D01*
X13176428Y-11073571D01*
X13185952Y-11054524D01*
X13195476Y-11025952D01*
X13205000Y-10978333D01*
X13205000Y-10940238D01*
X13195476Y-10892619D01*
X13185952Y-10864048D01*
X13176428Y-10845000D01*
X13157381Y-10816429D01*
X13147857Y-10806905D01*
X6395000Y-11265000D02*
G75*
G03*
X6395000Y-11265000I-100000J0D01*
G01*
X6738333Y-11222143D02*
X6738333Y-11355476D01*
X6690714Y-11145952D02*
X6643095Y-11288809D01*
X6766905Y-11288809D01*
X6843095Y-11336428D02*
X6852619Y-11345952D01*
X6843095Y-11355476D01*
X6833571Y-11345952D01*
X6843095Y-11336428D01*
X6843095Y-11355476D01*
X6976428Y-11155476D02*
X6995476Y-11155476D01*
X7014524Y-11165000D01*
X7024048Y-11174524D01*
X7033571Y-11193571D01*
X7043095Y-11231667D01*
X7043095Y-11279286D01*
X7033571Y-11317381D01*
X7024048Y-11336428D01*
X7014524Y-11345952D01*
X6995476Y-11355476D01*
X6976428Y-11355476D01*
X6957381Y-11345952D01*
X6947857Y-11336428D01*
X6938333Y-11317381D01*
X6928809Y-11279286D01*
X6928809Y-11231667D01*
X6938333Y-11193571D01*
X6947857Y-11174524D01*
X6957381Y-11165000D01*
X6976428Y-11155476D01*
X7166905Y-11155476D02*
X7185952Y-11155476D01*
X7205000Y-11165000D01*
X7214524Y-11174524D01*
X7224048Y-11193571D01*
X7233571Y-11231667D01*
X7233571Y-11279286D01*
X7224048Y-11317381D01*
X7214524Y-11336428D01*
X7205000Y-11345952D01*
X7185952Y-11355476D01*
X7166905Y-11355476D01*
X7147857Y-11345952D01*
X7138333Y-11336428D01*
X7128809Y-11317381D01*
X7119286Y-11279286D01*
X7119286Y-11231667D01*
X7128809Y-11193571D01*
X7138333Y-11174524D01*
X7147857Y-11165000D01*
X7166905Y-11155476D01*
X7357381Y-11155476D02*
X7376428Y-11155476D01*
X7395476Y-11165000D01*
X7405000Y-11174524D01*
X7414524Y-11193571D01*
X7424048Y-11231667D01*
X7424048Y-11279286D01*
X7414524Y-11317381D01*
X7405000Y-11336428D01*
X7395476Y-11345952D01*
X7376428Y-11355476D01*
X7357381Y-11355476D01*
X7338333Y-11345952D01*
X7328809Y-11336428D01*
X7319286Y-11317381D01*
X7309762Y-11279286D01*
X7309762Y-11231667D01*
X7319286Y-11193571D01*
X7328809Y-11174524D01*
X7338333Y-11165000D01*
X7357381Y-11155476D01*
X7509762Y-11355476D02*
X7509762Y-11222143D01*
X7509762Y-11241190D02*
X7519286Y-11231667D01*
X7538333Y-11222143D01*
X7566905Y-11222143D01*
X7585952Y-11231667D01*
X7595476Y-11250714D01*
X7595476Y-11355476D01*
X7595476Y-11250714D02*
X7605000Y-11231667D01*
X7624048Y-11222143D01*
X7652619Y-11222143D01*
X7671667Y-11231667D01*
X7681190Y-11250714D01*
X7681190Y-11355476D01*
X7776428Y-11355476D02*
X7776428Y-11222143D01*
X7776428Y-11241190D02*
X7785952Y-11231667D01*
X7805000Y-11222143D01*
X7833571Y-11222143D01*
X7852619Y-11231667D01*
X7862143Y-11250714D01*
X7862143Y-11355476D01*
X7862143Y-11250714D02*
X7871667Y-11231667D01*
X7890714Y-11222143D01*
X7919286Y-11222143D01*
X7938333Y-11231667D01*
X7947857Y-11250714D01*
X7947857Y-11355476D01*
X8338333Y-11145952D02*
X8166905Y-11403095D01*
X8595476Y-11155476D02*
X8614524Y-11155476D01*
X8633571Y-11165000D01*
X8643095Y-11174524D01*
X8652619Y-11193571D01*
X8662143Y-11231667D01*
X8662143Y-11279286D01*
X8652619Y-11317381D01*
X8643095Y-11336428D01*
X8633571Y-11345952D01*
X8614524Y-11355476D01*
X8595476Y-11355476D01*
X8576429Y-11345952D01*
X8566905Y-11336428D01*
X8557381Y-11317381D01*
X8547857Y-11279286D01*
X8547857Y-11231667D01*
X8557381Y-11193571D01*
X8566905Y-11174524D01*
X8576429Y-11165000D01*
X8595476Y-11155476D01*
X8747857Y-11336428D02*
X8757381Y-11345952D01*
X8747857Y-11355476D01*
X8738333Y-11345952D01*
X8747857Y-11336428D01*
X8747857Y-11355476D01*
X8947857Y-11355476D02*
X8833571Y-11355476D01*
X8890714Y-11355476D02*
X8890714Y-11155476D01*
X8871667Y-11184048D01*
X8852619Y-11203095D01*
X8833571Y-11212619D01*
X9128810Y-11155476D02*
X9033571Y-11155476D01*
X9024048Y-11250714D01*
X9033571Y-11241190D01*
X9052619Y-11231667D01*
X9100238Y-11231667D01*
X9119286Y-11241190D01*
X9128810Y-11250714D01*
X9138333Y-11269762D01*
X9138333Y-11317381D01*
X9128810Y-11336428D01*
X9119286Y-11345952D01*
X9100238Y-11355476D01*
X9052619Y-11355476D01*
X9033571Y-11345952D01*
X9024048Y-11336428D01*
X9205000Y-11155476D02*
X9338333Y-11155476D01*
X9252619Y-11355476D01*
X9509762Y-11155476D02*
X9414524Y-11155476D01*
X9405000Y-11250714D01*
X9414524Y-11241190D01*
X9433571Y-11231667D01*
X9481190Y-11231667D01*
X9500238Y-11241190D01*
X9509762Y-11250714D01*
X9519286Y-11269762D01*
X9519286Y-11317381D01*
X9509762Y-11336428D01*
X9500238Y-11345952D01*
X9481190Y-11355476D01*
X9433571Y-11355476D01*
X9414524Y-11345952D01*
X9405000Y-11336428D01*
X9595476Y-11155476D02*
X9595476Y-11193571D01*
X9671667Y-11155476D02*
X9671667Y-11193571D01*
X9966905Y-11431667D02*
X9957381Y-11422143D01*
X9938333Y-11393571D01*
X9928810Y-11374524D01*
X9919286Y-11345952D01*
X9909762Y-11298333D01*
X9909762Y-11260238D01*
X9919286Y-11212619D01*
X9928810Y-11184048D01*
X9938333Y-11165000D01*
X9957381Y-11136429D01*
X9966905Y-11126905D01*
X10033571Y-11174524D02*
X10043095Y-11165000D01*
X10062143Y-11155476D01*
X10109762Y-11155476D01*
X10128810Y-11165000D01*
X10138333Y-11174524D01*
X10147857Y-11193571D01*
X10147857Y-11212619D01*
X10138333Y-11241190D01*
X10024048Y-11355476D01*
X10147857Y-11355476D01*
X10385952Y-11355476D02*
X10385952Y-11155476D01*
X10471667Y-11355476D02*
X10471667Y-11250714D01*
X10462143Y-11231667D01*
X10443095Y-11222143D01*
X10414524Y-11222143D01*
X10395476Y-11231667D01*
X10385952Y-11241190D01*
X10595476Y-11355476D02*
X10576429Y-11345952D01*
X10566905Y-11336428D01*
X10557381Y-11317381D01*
X10557381Y-11260238D01*
X10566905Y-11241190D01*
X10576429Y-11231667D01*
X10595476Y-11222143D01*
X10624048Y-11222143D01*
X10643095Y-11231667D01*
X10652619Y-11241190D01*
X10662143Y-11260238D01*
X10662143Y-11317381D01*
X10652619Y-11336428D01*
X10643095Y-11345952D01*
X10624048Y-11355476D01*
X10595476Y-11355476D01*
X10776429Y-11355476D02*
X10757381Y-11345952D01*
X10747857Y-11326905D01*
X10747857Y-11155476D01*
X10928810Y-11345952D02*
X10909762Y-11355476D01*
X10871667Y-11355476D01*
X10852619Y-11345952D01*
X10843095Y-11326905D01*
X10843095Y-11250714D01*
X10852619Y-11231667D01*
X10871667Y-11222143D01*
X10909762Y-11222143D01*
X10928810Y-11231667D01*
X10938333Y-11250714D01*
X10938333Y-11269762D01*
X10843095Y-11288809D01*
X11014524Y-11345952D02*
X11033571Y-11355476D01*
X11071667Y-11355476D01*
X11090714Y-11345952D01*
X11100238Y-11326905D01*
X11100238Y-11317381D01*
X11090714Y-11298333D01*
X11071667Y-11288809D01*
X11043095Y-11288809D01*
X11024048Y-11279286D01*
X11014524Y-11260238D01*
X11014524Y-11250714D01*
X11024048Y-11231667D01*
X11043095Y-11222143D01*
X11071667Y-11222143D01*
X11090714Y-11231667D01*
X11166905Y-11431667D02*
X11176429Y-11422143D01*
X11195476Y-11393571D01*
X11205000Y-11374524D01*
X11214524Y-11345952D01*
X11224048Y-11298333D01*
X11224048Y-11260238D01*
X11214524Y-11212619D01*
X11205000Y-11184048D01*
X11195476Y-11165000D01*
X11176429Y-11136429D01*
X11166905Y-11126905D01*
X11528809Y-11431667D02*
X11519286Y-11422143D01*
X11500238Y-11393571D01*
X11490714Y-11374524D01*
X11481190Y-11345952D01*
X11471667Y-11298333D01*
X11471667Y-11260238D01*
X11481190Y-11212619D01*
X11490714Y-11184048D01*
X11500238Y-11165000D01*
X11519286Y-11136429D01*
X11528809Y-11126905D01*
X11605000Y-11222143D02*
X11605000Y-11355476D01*
X11605000Y-11241190D02*
X11614524Y-11231667D01*
X11633571Y-11222143D01*
X11662143Y-11222143D01*
X11681190Y-11231667D01*
X11690714Y-11250714D01*
X11690714Y-11355476D01*
X11814524Y-11355476D02*
X11795476Y-11345952D01*
X11785952Y-11336428D01*
X11776428Y-11317381D01*
X11776428Y-11260238D01*
X11785952Y-11241190D01*
X11795476Y-11231667D01*
X11814524Y-11222143D01*
X11843095Y-11222143D01*
X11862143Y-11231667D01*
X11871667Y-11241190D01*
X11881190Y-11260238D01*
X11881190Y-11317381D01*
X11871667Y-11336428D01*
X11862143Y-11345952D01*
X11843095Y-11355476D01*
X11814524Y-11355476D01*
X11938333Y-11222143D02*
X12014524Y-11222143D01*
X11966905Y-11155476D02*
X11966905Y-11326905D01*
X11976428Y-11345952D01*
X11995476Y-11355476D01*
X12014524Y-11355476D01*
X12233571Y-11222143D02*
X12233571Y-11422143D01*
X12233571Y-11231667D02*
X12252619Y-11222143D01*
X12290714Y-11222143D01*
X12309762Y-11231667D01*
X12319286Y-11241190D01*
X12328809Y-11260238D01*
X12328809Y-11317381D01*
X12319286Y-11336428D01*
X12309762Y-11345952D01*
X12290714Y-11355476D01*
X12252619Y-11355476D01*
X12233571Y-11345952D01*
X12443095Y-11355476D02*
X12424048Y-11345952D01*
X12414524Y-11326905D01*
X12414524Y-11155476D01*
X12605000Y-11355476D02*
X12605000Y-11250714D01*
X12595476Y-11231667D01*
X12576428Y-11222143D01*
X12538333Y-11222143D01*
X12519286Y-11231667D01*
X12605000Y-11345952D02*
X12585952Y-11355476D01*
X12538333Y-11355476D01*
X12519286Y-11345952D01*
X12509762Y-11326905D01*
X12509762Y-11307857D01*
X12519286Y-11288809D01*
X12538333Y-11279286D01*
X12585952Y-11279286D01*
X12605000Y-11269762D01*
X12671667Y-11222143D02*
X12747857Y-11222143D01*
X12700238Y-11155476D02*
X12700238Y-11326905D01*
X12709762Y-11345952D01*
X12728809Y-11355476D01*
X12747857Y-11355476D01*
X12890714Y-11345952D02*
X12871667Y-11355476D01*
X12833571Y-11355476D01*
X12814524Y-11345952D01*
X12805000Y-11326905D01*
X12805000Y-11250714D01*
X12814524Y-11231667D01*
X12833571Y-11222143D01*
X12871667Y-11222143D01*
X12890714Y-11231667D01*
X12900238Y-11250714D01*
X12900238Y-11269762D01*
X12805000Y-11288809D01*
X13071667Y-11355476D02*
X13071667Y-11155476D01*
X13071667Y-11345952D02*
X13052619Y-11355476D01*
X13014524Y-11355476D01*
X12995476Y-11345952D01*
X12985952Y-11336428D01*
X12976428Y-11317381D01*
X12976428Y-11260238D01*
X12985952Y-11241190D01*
X12995476Y-11231667D01*
X13014524Y-11222143D01*
X13052619Y-11222143D01*
X13071667Y-11231667D01*
X13147857Y-11431667D02*
X13157381Y-11422143D01*
X13176428Y-11393571D01*
X13185952Y-11374524D01*
X13195476Y-11345952D01*
X13205000Y-11298333D01*
X13205000Y-11260238D01*
X13195476Y-11212619D01*
X13185952Y-11184048D01*
X13176428Y-11165000D01*
X13157381Y-11136429D01*
X13147857Y-11126905D01*
M02*
