%TF.GenerationSoftware,KiCad,Pcbnew,(6.0.8)*%
%TF.CreationDate,2022-10-08T19:14:47-07:00*%
%TF.ProjectId,opnsense-gps-pps,6f706e73-656e-4736-952d-6770732d7070,rev?*%
%TF.SameCoordinates,Original*%
%TF.FileFunction,Drillmap*%
%TF.FilePolarity,Positive*%
%FSLAX45Y45*%
G04 Gerber Fmt 4.5, Leading zero omitted, Abs format (unit mm)*
G04 Created by KiCad (PCBNEW (6.0.8)) date 2022-10-08 19:14:47*
%MOMM*%
%LPD*%
G01*
G04 APERTURE LIST*
%ADD10C,2.850000*%
%ADD11C,0.100000*%
%ADD12C,3.075000*%
%ADD13C,0.200000*%
%ADD14C,0.040000*%
%ADD15C,0.091440*%
%ADD16C,0.180000*%
G04 APERTURE END LIST*
D10*
X7142500Y-5000000D02*
G75*
G03*
X7142500Y-5000000I-142500J0D01*
G01*
X7142500Y-9700000D02*
G75*
G03*
X7142500Y-9700000I-142500J0D01*
G01*
X12642500Y-9700000D02*
G75*
G03*
X12642500Y-9700000I-142500J0D01*
G01*
D11*
X6700000Y-4400000D02*
X12800000Y-4400000D01*
X6400000Y-10000000D02*
X6400000Y-4700000D01*
X12800000Y-10300000D02*
X6700000Y-10300000D01*
X13100000Y-4700000D02*
X13100000Y-10000000D01*
X12800000Y-10300000D02*
G75*
G03*
X13100000Y-10000000I0J300000D01*
G01*
X6400000Y-10000000D02*
G75*
G03*
X6700000Y-10300000I300000J0D01*
G01*
X6700000Y-4400000D02*
G75*
G03*
X6400000Y-4700000I0J-300000D01*
G01*
X13100000Y-4700000D02*
G75*
G03*
X12800000Y-4400000I-300000J0D01*
G01*
D12*
X6953750Y-7800000D02*
G75*
G03*
X6953750Y-7800000I-153750J0D01*
G01*
D10*
X12642500Y-5000000D02*
G75*
G03*
X12642500Y-5000000I-142500J0D01*
G01*
D13*
D14*
X7942880Y-6447500D02*
X7982880Y-6487500D01*
X7982880Y-6447500D02*
X7942880Y-6487500D01*
X9846610Y-6705390D02*
X9886610Y-6745390D01*
X9886610Y-6705390D02*
X9846610Y-6745390D01*
D15*
X10545723Y-4700000D02*
G75*
G03*
X10545723Y-4700000I-45720J0D01*
G01*
X10545723Y-4900000D02*
G75*
G03*
X10545723Y-4900000I-45720J0D01*
G01*
X10745723Y-4700000D02*
G75*
G03*
X10745723Y-4700000I-45720J0D01*
G01*
X10745723Y-4900000D02*
G75*
G03*
X10745723Y-4900000I-45720J0D01*
G01*
X10945723Y-4700000D02*
G75*
G03*
X10945723Y-4700000I-45720J0D01*
G01*
X10945723Y-4900000D02*
G75*
G03*
X10945723Y-4900000I-45720J0D01*
G01*
X11145723Y-4700000D02*
G75*
G03*
X11145723Y-4700000I-45720J0D01*
G01*
X11145723Y-4900000D02*
G75*
G03*
X11145723Y-4900000I-45720J0D01*
G01*
X11345723Y-4700000D02*
G75*
G03*
X11345723Y-4700000I-45720J0D01*
G01*
X11345723Y-4900000D02*
G75*
G03*
X11345723Y-4900000I-45720J0D01*
G01*
D11*
X8900000Y-7442500D02*
X8900000Y-7542500D01*
X8850000Y-7492500D02*
X8950000Y-7492500D01*
X8900000Y-7696500D02*
X8900000Y-7796500D01*
X8850000Y-7746500D02*
X8950000Y-7746500D01*
X8900000Y-7950500D02*
X8900000Y-8050500D01*
X8850000Y-8000500D02*
X8950000Y-8000500D01*
X8900000Y-8204500D02*
X8900000Y-8304500D01*
X8850000Y-8254500D02*
X8950000Y-8254500D01*
X8900000Y-8458500D02*
X8900000Y-8558500D01*
X8850000Y-8508500D02*
X8950000Y-8508500D01*
X9650000Y-4597500D02*
X9650000Y-4697500D01*
X9600000Y-4647500D02*
X9700000Y-4647500D01*
X9650000Y-4851500D02*
X9650000Y-4951500D01*
X9600000Y-4901500D02*
X9700000Y-4901500D01*
X10384000Y-5650000D02*
X10384000Y-5750000D01*
X10334000Y-5700000D02*
X10434000Y-5700000D01*
X10638000Y-5650000D02*
X10638000Y-5750000D01*
X10588000Y-5700000D02*
X10688000Y-5700000D01*
X10892000Y-5650000D02*
X10892000Y-5750000D01*
X10842000Y-5700000D02*
X10942000Y-5700000D01*
X11146000Y-5650000D02*
X11146000Y-5750000D01*
X11096000Y-5700000D02*
X11196000Y-5700000D01*
X11400000Y-5650000D02*
X11400000Y-5750000D01*
X11350000Y-5700000D02*
X11450000Y-5700000D01*
D16*
X10426140Y-6814140D02*
X10426140Y-6686860D01*
X10298860Y-6686860D01*
X10298860Y-6814140D01*
X10426140Y-6814140D01*
X10426140Y-7322140D02*
X10426140Y-7194860D01*
X10298860Y-7194860D01*
X10298860Y-7322140D01*
X10426140Y-7322140D01*
X10426140Y-7830140D02*
X10426140Y-7702860D01*
X10298860Y-7702860D01*
X10298860Y-7830140D01*
X10426140Y-7830140D01*
X10426140Y-8338140D02*
X10426140Y-8210860D01*
X10298860Y-8210860D01*
X10298860Y-8338140D01*
X10426140Y-8338140D01*
D13*
X6652619Y-10615476D02*
X6652619Y-10415476D01*
X6700238Y-10415476D01*
X6728809Y-10425000D01*
X6747857Y-10444048D01*
X6757381Y-10463095D01*
X6766905Y-10501190D01*
X6766905Y-10529762D01*
X6757381Y-10567857D01*
X6747857Y-10586905D01*
X6728809Y-10605952D01*
X6700238Y-10615476D01*
X6652619Y-10615476D01*
X6852619Y-10615476D02*
X6852619Y-10482143D01*
X6852619Y-10520238D02*
X6862143Y-10501190D01*
X6871667Y-10491667D01*
X6890714Y-10482143D01*
X6909762Y-10482143D01*
X6976428Y-10615476D02*
X6976428Y-10482143D01*
X6976428Y-10415476D02*
X6966905Y-10425000D01*
X6976428Y-10434524D01*
X6985952Y-10425000D01*
X6976428Y-10415476D01*
X6976428Y-10434524D01*
X7100238Y-10615476D02*
X7081190Y-10605952D01*
X7071667Y-10586905D01*
X7071667Y-10415476D01*
X7205000Y-10615476D02*
X7185952Y-10605952D01*
X7176428Y-10586905D01*
X7176428Y-10415476D01*
X7433571Y-10615476D02*
X7433571Y-10415476D01*
X7500238Y-10558333D01*
X7566905Y-10415476D01*
X7566905Y-10615476D01*
X7747857Y-10615476D02*
X7747857Y-10510714D01*
X7738333Y-10491667D01*
X7719286Y-10482143D01*
X7681190Y-10482143D01*
X7662143Y-10491667D01*
X7747857Y-10605952D02*
X7728809Y-10615476D01*
X7681190Y-10615476D01*
X7662143Y-10605952D01*
X7652619Y-10586905D01*
X7652619Y-10567857D01*
X7662143Y-10548810D01*
X7681190Y-10539286D01*
X7728809Y-10539286D01*
X7747857Y-10529762D01*
X7843095Y-10482143D02*
X7843095Y-10682143D01*
X7843095Y-10491667D02*
X7862143Y-10482143D01*
X7900238Y-10482143D01*
X7919286Y-10491667D01*
X7928809Y-10501190D01*
X7938333Y-10520238D01*
X7938333Y-10577381D01*
X7928809Y-10596429D01*
X7919286Y-10605952D01*
X7900238Y-10615476D01*
X7862143Y-10615476D01*
X7843095Y-10605952D01*
X8024048Y-10596429D02*
X8033571Y-10605952D01*
X8024048Y-10615476D01*
X8014524Y-10605952D01*
X8024048Y-10596429D01*
X8024048Y-10615476D01*
X8024048Y-10491667D02*
X8033571Y-10501190D01*
X8024048Y-10510714D01*
X8014524Y-10501190D01*
X8024048Y-10491667D01*
X8024048Y-10510714D01*
D14*
X6355000Y-10925000D02*
X6395000Y-10965000D01*
X6395000Y-10925000D02*
X6355000Y-10965000D01*
D13*
X6690714Y-10835476D02*
X6709762Y-10835476D01*
X6728809Y-10845000D01*
X6738333Y-10854524D01*
X6747857Y-10873571D01*
X6757381Y-10911667D01*
X6757381Y-10959286D01*
X6747857Y-10997381D01*
X6738333Y-11016429D01*
X6728809Y-11025952D01*
X6709762Y-11035476D01*
X6690714Y-11035476D01*
X6671667Y-11025952D01*
X6662143Y-11016429D01*
X6652619Y-10997381D01*
X6643095Y-10959286D01*
X6643095Y-10911667D01*
X6652619Y-10873571D01*
X6662143Y-10854524D01*
X6671667Y-10845000D01*
X6690714Y-10835476D01*
X6843095Y-11016429D02*
X6852619Y-11025952D01*
X6843095Y-11035476D01*
X6833571Y-11025952D01*
X6843095Y-11016429D01*
X6843095Y-11035476D01*
X7024048Y-10902143D02*
X7024048Y-11035476D01*
X6976428Y-10825952D02*
X6928809Y-10968810D01*
X7052619Y-10968810D01*
X7166905Y-10835476D02*
X7185952Y-10835476D01*
X7205000Y-10845000D01*
X7214524Y-10854524D01*
X7224048Y-10873571D01*
X7233571Y-10911667D01*
X7233571Y-10959286D01*
X7224048Y-10997381D01*
X7214524Y-11016429D01*
X7205000Y-11025952D01*
X7185952Y-11035476D01*
X7166905Y-11035476D01*
X7147857Y-11025952D01*
X7138333Y-11016429D01*
X7128809Y-10997381D01*
X7119286Y-10959286D01*
X7119286Y-10911667D01*
X7128809Y-10873571D01*
X7138333Y-10854524D01*
X7147857Y-10845000D01*
X7166905Y-10835476D01*
X7357381Y-10835476D02*
X7376428Y-10835476D01*
X7395476Y-10845000D01*
X7405000Y-10854524D01*
X7414524Y-10873571D01*
X7424048Y-10911667D01*
X7424048Y-10959286D01*
X7414524Y-10997381D01*
X7405000Y-11016429D01*
X7395476Y-11025952D01*
X7376428Y-11035476D01*
X7357381Y-11035476D01*
X7338333Y-11025952D01*
X7328809Y-11016429D01*
X7319286Y-10997381D01*
X7309762Y-10959286D01*
X7309762Y-10911667D01*
X7319286Y-10873571D01*
X7328809Y-10854524D01*
X7338333Y-10845000D01*
X7357381Y-10835476D01*
X7509762Y-11035476D02*
X7509762Y-10902143D01*
X7509762Y-10921190D02*
X7519286Y-10911667D01*
X7538333Y-10902143D01*
X7566905Y-10902143D01*
X7585952Y-10911667D01*
X7595476Y-10930714D01*
X7595476Y-11035476D01*
X7595476Y-10930714D02*
X7605000Y-10911667D01*
X7624048Y-10902143D01*
X7652619Y-10902143D01*
X7671667Y-10911667D01*
X7681190Y-10930714D01*
X7681190Y-11035476D01*
X7776428Y-11035476D02*
X7776428Y-10902143D01*
X7776428Y-10921190D02*
X7785952Y-10911667D01*
X7805000Y-10902143D01*
X7833571Y-10902143D01*
X7852619Y-10911667D01*
X7862143Y-10930714D01*
X7862143Y-11035476D01*
X7862143Y-10930714D02*
X7871667Y-10911667D01*
X7890714Y-10902143D01*
X7919286Y-10902143D01*
X7938333Y-10911667D01*
X7947857Y-10930714D01*
X7947857Y-11035476D01*
X8338333Y-10825952D02*
X8166905Y-11083095D01*
X8595476Y-10835476D02*
X8614524Y-10835476D01*
X8633571Y-10845000D01*
X8643095Y-10854524D01*
X8652619Y-10873571D01*
X8662143Y-10911667D01*
X8662143Y-10959286D01*
X8652619Y-10997381D01*
X8643095Y-11016429D01*
X8633571Y-11025952D01*
X8614524Y-11035476D01*
X8595476Y-11035476D01*
X8576429Y-11025952D01*
X8566905Y-11016429D01*
X8557381Y-10997381D01*
X8547857Y-10959286D01*
X8547857Y-10911667D01*
X8557381Y-10873571D01*
X8566905Y-10854524D01*
X8576429Y-10845000D01*
X8595476Y-10835476D01*
X8747857Y-11016429D02*
X8757381Y-11025952D01*
X8747857Y-11035476D01*
X8738333Y-11025952D01*
X8747857Y-11016429D01*
X8747857Y-11035476D01*
X8881190Y-10835476D02*
X8900238Y-10835476D01*
X8919286Y-10845000D01*
X8928810Y-10854524D01*
X8938333Y-10873571D01*
X8947857Y-10911667D01*
X8947857Y-10959286D01*
X8938333Y-10997381D01*
X8928810Y-11016429D01*
X8919286Y-11025952D01*
X8900238Y-11035476D01*
X8881190Y-11035476D01*
X8862143Y-11025952D01*
X8852619Y-11016429D01*
X8843095Y-10997381D01*
X8833571Y-10959286D01*
X8833571Y-10911667D01*
X8843095Y-10873571D01*
X8852619Y-10854524D01*
X8862143Y-10845000D01*
X8881190Y-10835476D01*
X9138333Y-11035476D02*
X9024048Y-11035476D01*
X9081190Y-11035476D02*
X9081190Y-10835476D01*
X9062143Y-10864048D01*
X9043095Y-10883095D01*
X9024048Y-10892619D01*
X9319286Y-10835476D02*
X9224048Y-10835476D01*
X9214524Y-10930714D01*
X9224048Y-10921190D01*
X9243095Y-10911667D01*
X9290714Y-10911667D01*
X9309762Y-10921190D01*
X9319286Y-10930714D01*
X9328810Y-10949762D01*
X9328810Y-10997381D01*
X9319286Y-11016429D01*
X9309762Y-11025952D01*
X9290714Y-11035476D01*
X9243095Y-11035476D01*
X9224048Y-11025952D01*
X9214524Y-11016429D01*
X9395476Y-10835476D02*
X9528810Y-10835476D01*
X9443095Y-11035476D01*
X9595476Y-10835476D02*
X9595476Y-10873571D01*
X9671667Y-10835476D02*
X9671667Y-10873571D01*
X9966905Y-11111667D02*
X9957381Y-11102143D01*
X9938333Y-11073571D01*
X9928810Y-11054524D01*
X9919286Y-11025952D01*
X9909762Y-10978333D01*
X9909762Y-10940238D01*
X9919286Y-10892619D01*
X9928810Y-10864048D01*
X9938333Y-10845000D01*
X9957381Y-10816429D01*
X9966905Y-10806905D01*
X10033571Y-10854524D02*
X10043095Y-10845000D01*
X10062143Y-10835476D01*
X10109762Y-10835476D01*
X10128810Y-10845000D01*
X10138333Y-10854524D01*
X10147857Y-10873571D01*
X10147857Y-10892619D01*
X10138333Y-10921190D01*
X10024048Y-11035476D01*
X10147857Y-11035476D01*
X10385952Y-11035476D02*
X10385952Y-10835476D01*
X10471667Y-11035476D02*
X10471667Y-10930714D01*
X10462143Y-10911667D01*
X10443095Y-10902143D01*
X10414524Y-10902143D01*
X10395476Y-10911667D01*
X10385952Y-10921190D01*
X10595476Y-11035476D02*
X10576429Y-11025952D01*
X10566905Y-11016429D01*
X10557381Y-10997381D01*
X10557381Y-10940238D01*
X10566905Y-10921190D01*
X10576429Y-10911667D01*
X10595476Y-10902143D01*
X10624048Y-10902143D01*
X10643095Y-10911667D01*
X10652619Y-10921190D01*
X10662143Y-10940238D01*
X10662143Y-10997381D01*
X10652619Y-11016429D01*
X10643095Y-11025952D01*
X10624048Y-11035476D01*
X10595476Y-11035476D01*
X10776429Y-11035476D02*
X10757381Y-11025952D01*
X10747857Y-11006905D01*
X10747857Y-10835476D01*
X10928810Y-11025952D02*
X10909762Y-11035476D01*
X10871667Y-11035476D01*
X10852619Y-11025952D01*
X10843095Y-11006905D01*
X10843095Y-10930714D01*
X10852619Y-10911667D01*
X10871667Y-10902143D01*
X10909762Y-10902143D01*
X10928810Y-10911667D01*
X10938333Y-10930714D01*
X10938333Y-10949762D01*
X10843095Y-10968810D01*
X11014524Y-11025952D02*
X11033571Y-11035476D01*
X11071667Y-11035476D01*
X11090714Y-11025952D01*
X11100238Y-11006905D01*
X11100238Y-10997381D01*
X11090714Y-10978333D01*
X11071667Y-10968810D01*
X11043095Y-10968810D01*
X11024048Y-10959286D01*
X11014524Y-10940238D01*
X11014524Y-10930714D01*
X11024048Y-10911667D01*
X11043095Y-10902143D01*
X11071667Y-10902143D01*
X11090714Y-10911667D01*
X11166905Y-11111667D02*
X11176429Y-11102143D01*
X11195476Y-11073571D01*
X11205000Y-11054524D01*
X11214524Y-11025952D01*
X11224048Y-10978333D01*
X11224048Y-10940238D01*
X11214524Y-10892619D01*
X11205000Y-10864048D01*
X11195476Y-10845000D01*
X11176429Y-10816429D01*
X11166905Y-10806905D01*
D15*
X6395000Y-11209000D02*
G75*
G03*
X6395000Y-11209000I-45720J0D01*
G01*
D13*
X6690714Y-11099476D02*
X6709762Y-11099476D01*
X6728809Y-11109000D01*
X6738333Y-11118524D01*
X6747857Y-11137571D01*
X6757381Y-11175667D01*
X6757381Y-11223286D01*
X6747857Y-11261381D01*
X6738333Y-11280428D01*
X6728809Y-11289952D01*
X6709762Y-11299476D01*
X6690714Y-11299476D01*
X6671667Y-11289952D01*
X6662143Y-11280428D01*
X6652619Y-11261381D01*
X6643095Y-11223286D01*
X6643095Y-11175667D01*
X6652619Y-11137571D01*
X6662143Y-11118524D01*
X6671667Y-11109000D01*
X6690714Y-11099476D01*
X6843095Y-11280428D02*
X6852619Y-11289952D01*
X6843095Y-11299476D01*
X6833571Y-11289952D01*
X6843095Y-11280428D01*
X6843095Y-11299476D01*
X6947857Y-11299476D02*
X6985952Y-11299476D01*
X7005000Y-11289952D01*
X7014524Y-11280428D01*
X7033571Y-11251857D01*
X7043095Y-11213762D01*
X7043095Y-11137571D01*
X7033571Y-11118524D01*
X7024048Y-11109000D01*
X7005000Y-11099476D01*
X6966905Y-11099476D01*
X6947857Y-11109000D01*
X6938333Y-11118524D01*
X6928809Y-11137571D01*
X6928809Y-11185190D01*
X6938333Y-11204238D01*
X6947857Y-11213762D01*
X6966905Y-11223286D01*
X7005000Y-11223286D01*
X7024048Y-11213762D01*
X7033571Y-11204238D01*
X7043095Y-11185190D01*
X7233571Y-11299476D02*
X7119286Y-11299476D01*
X7176428Y-11299476D02*
X7176428Y-11099476D01*
X7157381Y-11128048D01*
X7138333Y-11147095D01*
X7119286Y-11156619D01*
X7405000Y-11166143D02*
X7405000Y-11299476D01*
X7357381Y-11089952D02*
X7309762Y-11232809D01*
X7433571Y-11232809D01*
X7509762Y-11299476D02*
X7509762Y-11166143D01*
X7509762Y-11185190D02*
X7519286Y-11175667D01*
X7538333Y-11166143D01*
X7566905Y-11166143D01*
X7585952Y-11175667D01*
X7595476Y-11194714D01*
X7595476Y-11299476D01*
X7595476Y-11194714D02*
X7605000Y-11175667D01*
X7624048Y-11166143D01*
X7652619Y-11166143D01*
X7671667Y-11175667D01*
X7681190Y-11194714D01*
X7681190Y-11299476D01*
X7776428Y-11299476D02*
X7776428Y-11166143D01*
X7776428Y-11185190D02*
X7785952Y-11175667D01*
X7805000Y-11166143D01*
X7833571Y-11166143D01*
X7852619Y-11175667D01*
X7862143Y-11194714D01*
X7862143Y-11299476D01*
X7862143Y-11194714D02*
X7871667Y-11175667D01*
X7890714Y-11166143D01*
X7919286Y-11166143D01*
X7938333Y-11175667D01*
X7947857Y-11194714D01*
X7947857Y-11299476D01*
X8338333Y-11089952D02*
X8166905Y-11347095D01*
X8595476Y-11099476D02*
X8614524Y-11099476D01*
X8633571Y-11109000D01*
X8643095Y-11118524D01*
X8652619Y-11137571D01*
X8662143Y-11175667D01*
X8662143Y-11223286D01*
X8652619Y-11261381D01*
X8643095Y-11280428D01*
X8633571Y-11289952D01*
X8614524Y-11299476D01*
X8595476Y-11299476D01*
X8576429Y-11289952D01*
X8566905Y-11280428D01*
X8557381Y-11261381D01*
X8547857Y-11223286D01*
X8547857Y-11175667D01*
X8557381Y-11137571D01*
X8566905Y-11118524D01*
X8576429Y-11109000D01*
X8595476Y-11099476D01*
X8747857Y-11280428D02*
X8757381Y-11289952D01*
X8747857Y-11299476D01*
X8738333Y-11289952D01*
X8747857Y-11280428D01*
X8747857Y-11299476D01*
X8881190Y-11099476D02*
X8900238Y-11099476D01*
X8919286Y-11109000D01*
X8928810Y-11118524D01*
X8938333Y-11137571D01*
X8947857Y-11175667D01*
X8947857Y-11223286D01*
X8938333Y-11261381D01*
X8928810Y-11280428D01*
X8919286Y-11289952D01*
X8900238Y-11299476D01*
X8881190Y-11299476D01*
X8862143Y-11289952D01*
X8852619Y-11280428D01*
X8843095Y-11261381D01*
X8833571Y-11223286D01*
X8833571Y-11175667D01*
X8843095Y-11137571D01*
X8852619Y-11118524D01*
X8862143Y-11109000D01*
X8881190Y-11099476D01*
X9014524Y-11099476D02*
X9138333Y-11099476D01*
X9071667Y-11175667D01*
X9100238Y-11175667D01*
X9119286Y-11185190D01*
X9128810Y-11194714D01*
X9138333Y-11213762D01*
X9138333Y-11261381D01*
X9128810Y-11280428D01*
X9119286Y-11289952D01*
X9100238Y-11299476D01*
X9043095Y-11299476D01*
X9024048Y-11289952D01*
X9014524Y-11280428D01*
X9309762Y-11099476D02*
X9271667Y-11099476D01*
X9252619Y-11109000D01*
X9243095Y-11118524D01*
X9224048Y-11147095D01*
X9214524Y-11185190D01*
X9214524Y-11261381D01*
X9224048Y-11280428D01*
X9233571Y-11289952D01*
X9252619Y-11299476D01*
X9290714Y-11299476D01*
X9309762Y-11289952D01*
X9319286Y-11280428D01*
X9328810Y-11261381D01*
X9328810Y-11213762D01*
X9319286Y-11194714D01*
X9309762Y-11185190D01*
X9290714Y-11175667D01*
X9252619Y-11175667D01*
X9233571Y-11185190D01*
X9224048Y-11194714D01*
X9214524Y-11213762D01*
X9452619Y-11099476D02*
X9471667Y-11099476D01*
X9490714Y-11109000D01*
X9500238Y-11118524D01*
X9509762Y-11137571D01*
X9519286Y-11175667D01*
X9519286Y-11223286D01*
X9509762Y-11261381D01*
X9500238Y-11280428D01*
X9490714Y-11289952D01*
X9471667Y-11299476D01*
X9452619Y-11299476D01*
X9433571Y-11289952D01*
X9424048Y-11280428D01*
X9414524Y-11261381D01*
X9405000Y-11223286D01*
X9405000Y-11175667D01*
X9414524Y-11137571D01*
X9424048Y-11118524D01*
X9433571Y-11109000D01*
X9452619Y-11099476D01*
X9595476Y-11099476D02*
X9595476Y-11137571D01*
X9671667Y-11099476D02*
X9671667Y-11137571D01*
X9966905Y-11375667D02*
X9957381Y-11366143D01*
X9938333Y-11337571D01*
X9928810Y-11318524D01*
X9919286Y-11289952D01*
X9909762Y-11242333D01*
X9909762Y-11204238D01*
X9919286Y-11156619D01*
X9928810Y-11128048D01*
X9938333Y-11109000D01*
X9957381Y-11080429D01*
X9966905Y-11070905D01*
X10147857Y-11299476D02*
X10033571Y-11299476D01*
X10090714Y-11299476D02*
X10090714Y-11099476D01*
X10071667Y-11128048D01*
X10052619Y-11147095D01*
X10033571Y-11156619D01*
X10271667Y-11099476D02*
X10290714Y-11099476D01*
X10309762Y-11109000D01*
X10319286Y-11118524D01*
X10328810Y-11137571D01*
X10338333Y-11175667D01*
X10338333Y-11223286D01*
X10328810Y-11261381D01*
X10319286Y-11280428D01*
X10309762Y-11289952D01*
X10290714Y-11299476D01*
X10271667Y-11299476D01*
X10252619Y-11289952D01*
X10243095Y-11280428D01*
X10233571Y-11261381D01*
X10224048Y-11223286D01*
X10224048Y-11175667D01*
X10233571Y-11137571D01*
X10243095Y-11118524D01*
X10252619Y-11109000D01*
X10271667Y-11099476D01*
X10576429Y-11299476D02*
X10576429Y-11099476D01*
X10662143Y-11299476D02*
X10662143Y-11194714D01*
X10652619Y-11175667D01*
X10633571Y-11166143D01*
X10605000Y-11166143D01*
X10585952Y-11175667D01*
X10576429Y-11185190D01*
X10785952Y-11299476D02*
X10766905Y-11289952D01*
X10757381Y-11280428D01*
X10747857Y-11261381D01*
X10747857Y-11204238D01*
X10757381Y-11185190D01*
X10766905Y-11175667D01*
X10785952Y-11166143D01*
X10814524Y-11166143D01*
X10833571Y-11175667D01*
X10843095Y-11185190D01*
X10852619Y-11204238D01*
X10852619Y-11261381D01*
X10843095Y-11280428D01*
X10833571Y-11289952D01*
X10814524Y-11299476D01*
X10785952Y-11299476D01*
X10966905Y-11299476D02*
X10947857Y-11289952D01*
X10938333Y-11270905D01*
X10938333Y-11099476D01*
X11119286Y-11289952D02*
X11100238Y-11299476D01*
X11062143Y-11299476D01*
X11043095Y-11289952D01*
X11033571Y-11270905D01*
X11033571Y-11194714D01*
X11043095Y-11175667D01*
X11062143Y-11166143D01*
X11100238Y-11166143D01*
X11119286Y-11175667D01*
X11128810Y-11194714D01*
X11128810Y-11213762D01*
X11033571Y-11232809D01*
X11205000Y-11289952D02*
X11224048Y-11299476D01*
X11262143Y-11299476D01*
X11281190Y-11289952D01*
X11290714Y-11270905D01*
X11290714Y-11261381D01*
X11281190Y-11242333D01*
X11262143Y-11232809D01*
X11233571Y-11232809D01*
X11214524Y-11223286D01*
X11205000Y-11204238D01*
X11205000Y-11194714D01*
X11214524Y-11175667D01*
X11233571Y-11166143D01*
X11262143Y-11166143D01*
X11281190Y-11175667D01*
X11357381Y-11375667D02*
X11366905Y-11366143D01*
X11385952Y-11337571D01*
X11395476Y-11318524D01*
X11405000Y-11289952D01*
X11414524Y-11242333D01*
X11414524Y-11204238D01*
X11405000Y-11156619D01*
X11395476Y-11128048D01*
X11385952Y-11109000D01*
X11366905Y-11080429D01*
X11357381Y-11070905D01*
D11*
X6345000Y-11423000D02*
X6345000Y-11523000D01*
X6295000Y-11473000D02*
X6395000Y-11473000D01*
D13*
X6757381Y-11563476D02*
X6643095Y-11563476D01*
X6700238Y-11563476D02*
X6700238Y-11363476D01*
X6681190Y-11392048D01*
X6662143Y-11411095D01*
X6643095Y-11420619D01*
X6843095Y-11544428D02*
X6852619Y-11553952D01*
X6843095Y-11563476D01*
X6833571Y-11553952D01*
X6843095Y-11544428D01*
X6843095Y-11563476D01*
X6976428Y-11363476D02*
X6995476Y-11363476D01*
X7014524Y-11373000D01*
X7024048Y-11382524D01*
X7033571Y-11401571D01*
X7043095Y-11439667D01*
X7043095Y-11487286D01*
X7033571Y-11525381D01*
X7024048Y-11544428D01*
X7014524Y-11553952D01*
X6995476Y-11563476D01*
X6976428Y-11563476D01*
X6957381Y-11553952D01*
X6947857Y-11544428D01*
X6938333Y-11525381D01*
X6928809Y-11487286D01*
X6928809Y-11439667D01*
X6938333Y-11401571D01*
X6947857Y-11382524D01*
X6957381Y-11373000D01*
X6976428Y-11363476D01*
X7166905Y-11363476D02*
X7185952Y-11363476D01*
X7205000Y-11373000D01*
X7214524Y-11382524D01*
X7224048Y-11401571D01*
X7233571Y-11439667D01*
X7233571Y-11487286D01*
X7224048Y-11525381D01*
X7214524Y-11544428D01*
X7205000Y-11553952D01*
X7185952Y-11563476D01*
X7166905Y-11563476D01*
X7147857Y-11553952D01*
X7138333Y-11544428D01*
X7128809Y-11525381D01*
X7119286Y-11487286D01*
X7119286Y-11439667D01*
X7128809Y-11401571D01*
X7138333Y-11382524D01*
X7147857Y-11373000D01*
X7166905Y-11363476D01*
X7357381Y-11363476D02*
X7376428Y-11363476D01*
X7395476Y-11373000D01*
X7405000Y-11382524D01*
X7414524Y-11401571D01*
X7424048Y-11439667D01*
X7424048Y-11487286D01*
X7414524Y-11525381D01*
X7405000Y-11544428D01*
X7395476Y-11553952D01*
X7376428Y-11563476D01*
X7357381Y-11563476D01*
X7338333Y-11553952D01*
X7328809Y-11544428D01*
X7319286Y-11525381D01*
X7309762Y-11487286D01*
X7309762Y-11439667D01*
X7319286Y-11401571D01*
X7328809Y-11382524D01*
X7338333Y-11373000D01*
X7357381Y-11363476D01*
X7509762Y-11563476D02*
X7509762Y-11430143D01*
X7509762Y-11449190D02*
X7519286Y-11439667D01*
X7538333Y-11430143D01*
X7566905Y-11430143D01*
X7585952Y-11439667D01*
X7595476Y-11458714D01*
X7595476Y-11563476D01*
X7595476Y-11458714D02*
X7605000Y-11439667D01*
X7624048Y-11430143D01*
X7652619Y-11430143D01*
X7671667Y-11439667D01*
X7681190Y-11458714D01*
X7681190Y-11563476D01*
X7776428Y-11563476D02*
X7776428Y-11430143D01*
X7776428Y-11449190D02*
X7785952Y-11439667D01*
X7805000Y-11430143D01*
X7833571Y-11430143D01*
X7852619Y-11439667D01*
X7862143Y-11458714D01*
X7862143Y-11563476D01*
X7862143Y-11458714D02*
X7871667Y-11439667D01*
X7890714Y-11430143D01*
X7919286Y-11430143D01*
X7938333Y-11439667D01*
X7947857Y-11458714D01*
X7947857Y-11563476D01*
X8338333Y-11353952D02*
X8166905Y-11611095D01*
X8595476Y-11363476D02*
X8614524Y-11363476D01*
X8633571Y-11373000D01*
X8643095Y-11382524D01*
X8652619Y-11401571D01*
X8662143Y-11439667D01*
X8662143Y-11487286D01*
X8652619Y-11525381D01*
X8643095Y-11544428D01*
X8633571Y-11553952D01*
X8614524Y-11563476D01*
X8595476Y-11563476D01*
X8576429Y-11553952D01*
X8566905Y-11544428D01*
X8557381Y-11525381D01*
X8547857Y-11487286D01*
X8547857Y-11439667D01*
X8557381Y-11401571D01*
X8566905Y-11382524D01*
X8576429Y-11373000D01*
X8595476Y-11363476D01*
X8747857Y-11544428D02*
X8757381Y-11553952D01*
X8747857Y-11563476D01*
X8738333Y-11553952D01*
X8747857Y-11544428D01*
X8747857Y-11563476D01*
X8881190Y-11363476D02*
X8900238Y-11363476D01*
X8919286Y-11373000D01*
X8928810Y-11382524D01*
X8938333Y-11401571D01*
X8947857Y-11439667D01*
X8947857Y-11487286D01*
X8938333Y-11525381D01*
X8928810Y-11544428D01*
X8919286Y-11553952D01*
X8900238Y-11563476D01*
X8881190Y-11563476D01*
X8862143Y-11553952D01*
X8852619Y-11544428D01*
X8843095Y-11525381D01*
X8833571Y-11487286D01*
X8833571Y-11439667D01*
X8843095Y-11401571D01*
X8852619Y-11382524D01*
X8862143Y-11373000D01*
X8881190Y-11363476D01*
X9014524Y-11363476D02*
X9138333Y-11363476D01*
X9071667Y-11439667D01*
X9100238Y-11439667D01*
X9119286Y-11449190D01*
X9128810Y-11458714D01*
X9138333Y-11477762D01*
X9138333Y-11525381D01*
X9128810Y-11544428D01*
X9119286Y-11553952D01*
X9100238Y-11563476D01*
X9043095Y-11563476D01*
X9024048Y-11553952D01*
X9014524Y-11544428D01*
X9233571Y-11563476D02*
X9271667Y-11563476D01*
X9290714Y-11553952D01*
X9300238Y-11544428D01*
X9319286Y-11515857D01*
X9328810Y-11477762D01*
X9328810Y-11401571D01*
X9319286Y-11382524D01*
X9309762Y-11373000D01*
X9290714Y-11363476D01*
X9252619Y-11363476D01*
X9233571Y-11373000D01*
X9224048Y-11382524D01*
X9214524Y-11401571D01*
X9214524Y-11449190D01*
X9224048Y-11468238D01*
X9233571Y-11477762D01*
X9252619Y-11487286D01*
X9290714Y-11487286D01*
X9309762Y-11477762D01*
X9319286Y-11468238D01*
X9328810Y-11449190D01*
X9500238Y-11430143D02*
X9500238Y-11563476D01*
X9452619Y-11353952D02*
X9405000Y-11496809D01*
X9528810Y-11496809D01*
X9595476Y-11363476D02*
X9595476Y-11401571D01*
X9671667Y-11363476D02*
X9671667Y-11401571D01*
X9966905Y-11639667D02*
X9957381Y-11630143D01*
X9938333Y-11601571D01*
X9928810Y-11582524D01*
X9919286Y-11553952D01*
X9909762Y-11506333D01*
X9909762Y-11468238D01*
X9919286Y-11420619D01*
X9928810Y-11392048D01*
X9938333Y-11373000D01*
X9957381Y-11344428D01*
X9966905Y-11334905D01*
X10147857Y-11563476D02*
X10033571Y-11563476D01*
X10090714Y-11563476D02*
X10090714Y-11363476D01*
X10071667Y-11392048D01*
X10052619Y-11411095D01*
X10033571Y-11420619D01*
X10224048Y-11382524D02*
X10233571Y-11373000D01*
X10252619Y-11363476D01*
X10300238Y-11363476D01*
X10319286Y-11373000D01*
X10328810Y-11382524D01*
X10338333Y-11401571D01*
X10338333Y-11420619D01*
X10328810Y-11449190D01*
X10214524Y-11563476D01*
X10338333Y-11563476D01*
X10576429Y-11563476D02*
X10576429Y-11363476D01*
X10662143Y-11563476D02*
X10662143Y-11458714D01*
X10652619Y-11439667D01*
X10633571Y-11430143D01*
X10605000Y-11430143D01*
X10585952Y-11439667D01*
X10576429Y-11449190D01*
X10785952Y-11563476D02*
X10766905Y-11553952D01*
X10757381Y-11544428D01*
X10747857Y-11525381D01*
X10747857Y-11468238D01*
X10757381Y-11449190D01*
X10766905Y-11439667D01*
X10785952Y-11430143D01*
X10814524Y-11430143D01*
X10833571Y-11439667D01*
X10843095Y-11449190D01*
X10852619Y-11468238D01*
X10852619Y-11525381D01*
X10843095Y-11544428D01*
X10833571Y-11553952D01*
X10814524Y-11563476D01*
X10785952Y-11563476D01*
X10966905Y-11563476D02*
X10947857Y-11553952D01*
X10938333Y-11534905D01*
X10938333Y-11363476D01*
X11119286Y-11553952D02*
X11100238Y-11563476D01*
X11062143Y-11563476D01*
X11043095Y-11553952D01*
X11033571Y-11534905D01*
X11033571Y-11458714D01*
X11043095Y-11439667D01*
X11062143Y-11430143D01*
X11100238Y-11430143D01*
X11119286Y-11439667D01*
X11128810Y-11458714D01*
X11128810Y-11477762D01*
X11033571Y-11496809D01*
X11205000Y-11553952D02*
X11224048Y-11563476D01*
X11262143Y-11563476D01*
X11281190Y-11553952D01*
X11290714Y-11534905D01*
X11290714Y-11525381D01*
X11281190Y-11506333D01*
X11262143Y-11496809D01*
X11233571Y-11496809D01*
X11214524Y-11487286D01*
X11205000Y-11468238D01*
X11205000Y-11458714D01*
X11214524Y-11439667D01*
X11233571Y-11430143D01*
X11262143Y-11430143D01*
X11281190Y-11439667D01*
X11357381Y-11639667D02*
X11366905Y-11630143D01*
X11385952Y-11601571D01*
X11395476Y-11582524D01*
X11405000Y-11553952D01*
X11414524Y-11506333D01*
X11414524Y-11468238D01*
X11405000Y-11420619D01*
X11395476Y-11392048D01*
X11385952Y-11373000D01*
X11366905Y-11344428D01*
X11357381Y-11334905D01*
D16*
X6368640Y-11800640D02*
X6368640Y-11673360D01*
X6241360Y-11673360D01*
X6241360Y-11800640D01*
X6368640Y-11800640D01*
D13*
X6757381Y-11827476D02*
X6643095Y-11827476D01*
X6700238Y-11827476D02*
X6700238Y-11627476D01*
X6681190Y-11656048D01*
X6662143Y-11675095D01*
X6643095Y-11684619D01*
X6843095Y-11808428D02*
X6852619Y-11817952D01*
X6843095Y-11827476D01*
X6833571Y-11817952D01*
X6843095Y-11808428D01*
X6843095Y-11827476D01*
X6966905Y-11713190D02*
X6947857Y-11703667D01*
X6938333Y-11694143D01*
X6928809Y-11675095D01*
X6928809Y-11665571D01*
X6938333Y-11646524D01*
X6947857Y-11637000D01*
X6966905Y-11627476D01*
X7005000Y-11627476D01*
X7024048Y-11637000D01*
X7033571Y-11646524D01*
X7043095Y-11665571D01*
X7043095Y-11675095D01*
X7033571Y-11694143D01*
X7024048Y-11703667D01*
X7005000Y-11713190D01*
X6966905Y-11713190D01*
X6947857Y-11722714D01*
X6938333Y-11732238D01*
X6928809Y-11751286D01*
X6928809Y-11789381D01*
X6938333Y-11808428D01*
X6947857Y-11817952D01*
X6966905Y-11827476D01*
X7005000Y-11827476D01*
X7024048Y-11817952D01*
X7033571Y-11808428D01*
X7043095Y-11789381D01*
X7043095Y-11751286D01*
X7033571Y-11732238D01*
X7024048Y-11722714D01*
X7005000Y-11713190D01*
X7166905Y-11627476D02*
X7185952Y-11627476D01*
X7205000Y-11637000D01*
X7214524Y-11646524D01*
X7224048Y-11665571D01*
X7233571Y-11703667D01*
X7233571Y-11751286D01*
X7224048Y-11789381D01*
X7214524Y-11808428D01*
X7205000Y-11817952D01*
X7185952Y-11827476D01*
X7166905Y-11827476D01*
X7147857Y-11817952D01*
X7138333Y-11808428D01*
X7128809Y-11789381D01*
X7119286Y-11751286D01*
X7119286Y-11703667D01*
X7128809Y-11665571D01*
X7138333Y-11646524D01*
X7147857Y-11637000D01*
X7166905Y-11627476D01*
X7357381Y-11627476D02*
X7376428Y-11627476D01*
X7395476Y-11637000D01*
X7405000Y-11646524D01*
X7414524Y-11665571D01*
X7424048Y-11703667D01*
X7424048Y-11751286D01*
X7414524Y-11789381D01*
X7405000Y-11808428D01*
X7395476Y-11817952D01*
X7376428Y-11827476D01*
X7357381Y-11827476D01*
X7338333Y-11817952D01*
X7328809Y-11808428D01*
X7319286Y-11789381D01*
X7309762Y-11751286D01*
X7309762Y-11703667D01*
X7319286Y-11665571D01*
X7328809Y-11646524D01*
X7338333Y-11637000D01*
X7357381Y-11627476D01*
X7509762Y-11827476D02*
X7509762Y-11694143D01*
X7509762Y-11713190D02*
X7519286Y-11703667D01*
X7538333Y-11694143D01*
X7566905Y-11694143D01*
X7585952Y-11703667D01*
X7595476Y-11722714D01*
X7595476Y-11827476D01*
X7595476Y-11722714D02*
X7605000Y-11703667D01*
X7624048Y-11694143D01*
X7652619Y-11694143D01*
X7671667Y-11703667D01*
X7681190Y-11722714D01*
X7681190Y-11827476D01*
X7776428Y-11827476D02*
X7776428Y-11694143D01*
X7776428Y-11713190D02*
X7785952Y-11703667D01*
X7805000Y-11694143D01*
X7833571Y-11694143D01*
X7852619Y-11703667D01*
X7862143Y-11722714D01*
X7862143Y-11827476D01*
X7862143Y-11722714D02*
X7871667Y-11703667D01*
X7890714Y-11694143D01*
X7919286Y-11694143D01*
X7938333Y-11703667D01*
X7947857Y-11722714D01*
X7947857Y-11827476D01*
X8338333Y-11617952D02*
X8166905Y-11875095D01*
X8595476Y-11627476D02*
X8614524Y-11627476D01*
X8633571Y-11637000D01*
X8643095Y-11646524D01*
X8652619Y-11665571D01*
X8662143Y-11703667D01*
X8662143Y-11751286D01*
X8652619Y-11789381D01*
X8643095Y-11808428D01*
X8633571Y-11817952D01*
X8614524Y-11827476D01*
X8595476Y-11827476D01*
X8576429Y-11817952D01*
X8566905Y-11808428D01*
X8557381Y-11789381D01*
X8547857Y-11751286D01*
X8547857Y-11703667D01*
X8557381Y-11665571D01*
X8566905Y-11646524D01*
X8576429Y-11637000D01*
X8595476Y-11627476D01*
X8747857Y-11808428D02*
X8757381Y-11817952D01*
X8747857Y-11827476D01*
X8738333Y-11817952D01*
X8747857Y-11808428D01*
X8747857Y-11827476D01*
X8881190Y-11627476D02*
X8900238Y-11627476D01*
X8919286Y-11637000D01*
X8928810Y-11646524D01*
X8938333Y-11665571D01*
X8947857Y-11703667D01*
X8947857Y-11751286D01*
X8938333Y-11789381D01*
X8928810Y-11808428D01*
X8919286Y-11817952D01*
X8900238Y-11827476D01*
X8881190Y-11827476D01*
X8862143Y-11817952D01*
X8852619Y-11808428D01*
X8843095Y-11789381D01*
X8833571Y-11751286D01*
X8833571Y-11703667D01*
X8843095Y-11665571D01*
X8852619Y-11646524D01*
X8862143Y-11637000D01*
X8881190Y-11627476D01*
X9014524Y-11627476D02*
X9147857Y-11627476D01*
X9062143Y-11827476D01*
X9262143Y-11627476D02*
X9281190Y-11627476D01*
X9300238Y-11637000D01*
X9309762Y-11646524D01*
X9319286Y-11665571D01*
X9328810Y-11703667D01*
X9328810Y-11751286D01*
X9319286Y-11789381D01*
X9309762Y-11808428D01*
X9300238Y-11817952D01*
X9281190Y-11827476D01*
X9262143Y-11827476D01*
X9243095Y-11817952D01*
X9233571Y-11808428D01*
X9224048Y-11789381D01*
X9214524Y-11751286D01*
X9214524Y-11703667D01*
X9224048Y-11665571D01*
X9233571Y-11646524D01*
X9243095Y-11637000D01*
X9262143Y-11627476D01*
X9424048Y-11827476D02*
X9462143Y-11827476D01*
X9481190Y-11817952D01*
X9490714Y-11808428D01*
X9509762Y-11779857D01*
X9519286Y-11741762D01*
X9519286Y-11665571D01*
X9509762Y-11646524D01*
X9500238Y-11637000D01*
X9481190Y-11627476D01*
X9443095Y-11627476D01*
X9424048Y-11637000D01*
X9414524Y-11646524D01*
X9405000Y-11665571D01*
X9405000Y-11713190D01*
X9414524Y-11732238D01*
X9424048Y-11741762D01*
X9443095Y-11751286D01*
X9481190Y-11751286D01*
X9500238Y-11741762D01*
X9509762Y-11732238D01*
X9519286Y-11713190D01*
X9595476Y-11627476D02*
X9595476Y-11665571D01*
X9671667Y-11627476D02*
X9671667Y-11665571D01*
X9966905Y-11903667D02*
X9957381Y-11894143D01*
X9938333Y-11865571D01*
X9928810Y-11846524D01*
X9919286Y-11817952D01*
X9909762Y-11770333D01*
X9909762Y-11732238D01*
X9919286Y-11684619D01*
X9928810Y-11656048D01*
X9938333Y-11637000D01*
X9957381Y-11608428D01*
X9966905Y-11598905D01*
X10128810Y-11694143D02*
X10128810Y-11827476D01*
X10081190Y-11617952D02*
X10033571Y-11760809D01*
X10157381Y-11760809D01*
X10385952Y-11827476D02*
X10385952Y-11627476D01*
X10471667Y-11827476D02*
X10471667Y-11722714D01*
X10462143Y-11703667D01*
X10443095Y-11694143D01*
X10414524Y-11694143D01*
X10395476Y-11703667D01*
X10385952Y-11713190D01*
X10595476Y-11827476D02*
X10576429Y-11817952D01*
X10566905Y-11808428D01*
X10557381Y-11789381D01*
X10557381Y-11732238D01*
X10566905Y-11713190D01*
X10576429Y-11703667D01*
X10595476Y-11694143D01*
X10624048Y-11694143D01*
X10643095Y-11703667D01*
X10652619Y-11713190D01*
X10662143Y-11732238D01*
X10662143Y-11789381D01*
X10652619Y-11808428D01*
X10643095Y-11817952D01*
X10624048Y-11827476D01*
X10595476Y-11827476D01*
X10776429Y-11827476D02*
X10757381Y-11817952D01*
X10747857Y-11798905D01*
X10747857Y-11627476D01*
X10928810Y-11817952D02*
X10909762Y-11827476D01*
X10871667Y-11827476D01*
X10852619Y-11817952D01*
X10843095Y-11798905D01*
X10843095Y-11722714D01*
X10852619Y-11703667D01*
X10871667Y-11694143D01*
X10909762Y-11694143D01*
X10928810Y-11703667D01*
X10938333Y-11722714D01*
X10938333Y-11741762D01*
X10843095Y-11760809D01*
X11014524Y-11817952D02*
X11033571Y-11827476D01*
X11071667Y-11827476D01*
X11090714Y-11817952D01*
X11100238Y-11798905D01*
X11100238Y-11789381D01*
X11090714Y-11770333D01*
X11071667Y-11760809D01*
X11043095Y-11760809D01*
X11024048Y-11751286D01*
X11014524Y-11732238D01*
X11014524Y-11722714D01*
X11024048Y-11703667D01*
X11043095Y-11694143D01*
X11071667Y-11694143D01*
X11090714Y-11703667D01*
X11166905Y-11903667D02*
X11176429Y-11894143D01*
X11195476Y-11865571D01*
X11205000Y-11846524D01*
X11214524Y-11817952D01*
X11224048Y-11770333D01*
X11224048Y-11732238D01*
X11214524Y-11684619D01*
X11205000Y-11656048D01*
X11195476Y-11637000D01*
X11176429Y-11608428D01*
X11166905Y-11598905D01*
M02*
